<?xml version="1.0" encoding="UTF-8"?>
<svg fill="none" version="1.1" viewBox="0 0 24 24" xmlns="http://www.w3.org/2000/svg">
<g transform="matrix(1.1853 0 0 1.1853 -2.2235 -2.2235)">
<path d="m8.3616 15.652 3.6574 6.3477 7.0654-2.9425-7.0747-1.9027z" fill="url(#f)"/>
<path d="m8.3477 8.3616 1.5592-0.64883 2.074-5.7128z" fill="#40b3b7"/>
<path d="m19.058 4.9155-7.0766-2.9155-2.074 5.7128 2.0833-0.86758z" fill="url(#e)"/>
<path d="m11.99 6.8452 1.1013 0.45334 5.1515-2.1606z" fill="#0c3e4f"/>
<path d="m15.652 15.638 6.3477-3.6575-5.8208 2.3775z" fill="#40b3b7"/>
<path d="m17.155 11.99-0.9756 2.3682 5.8208-2.3775-2.9425-7.0654z" fill="url(#d)"/>
<path d="m12.01 17.155 7.0747 1.9027-5.8208-2.425z" fill="#31919b"/>
<path d="m15.652 15.638-2.3886 0.9941 5.8208 2.425 2.9155-7.0766z" fill="url(#c)"/>
<path d="m6.8452 12.01-1.9297-7.0673-2.9155 7.0766 6.29 3.461z" fill="url(#b)"/>
<path d="m8.3616 15.652-0.07167-0.1722-6.29-3.461 2.9425 7.0654 7.0766 2.9155z" fill="#1c637b"/>
<path d="m6.8452 12.01 0.53898-1.3088-2.4687-5.7585z" fill="#31919b"/>
<path d="m11.981 2-7.0654 2.9425 2.4687 5.7585 0.96346-2.3394z" fill="url(#a)"/>
<path d="m17.155 11.99 1.9027-7.0747s-1.6905 4.4533-2.304 6.1141z" fill="#0c3e4f"/>
<path d="m13.092 7.2986 2.5469 1.0491 1.117 2.6781c0.6135-1.6569 2.3039-6.1103 2.3039-6.1103l-0.8145 0.22248z" fill="#1c637b"/>
</g>
<defs>
<linearGradient id="f" x1="13.66" x2="12.147" y1="17.541" y2="22.042" gradientUnits="userSpaceOnUse">
<stop stop-color="#297F92" offset="0"/>
<stop stop-color="#3197AD" offset="1"/>
</linearGradient>
<linearGradient id="e" x1="10.917" x2="16.31" y1="4.8597" y2="4.1699" gradientUnits="userSpaceOnUse">
<stop stop-color="#44BBBD" offset="0"/>
<stop stop-color="#4DD4D6" offset="1"/>
</linearGradient>
<linearGradient id="d" x1="902.8" x2="1266.8" y1="779.61" y2="779.61" gradientUnits="userSpaceOnUse">
<stop stop-color="#44BBBD" offset="0"/>
<stop stop-color="#4DD4D6" offset="1"/>
</linearGradient>
<linearGradient id="c" x1="18.422" x2="17.508" y1="17.884" y2="13.745" gradientUnits="userSpaceOnUse">
<stop stop-color="#39A5B0" offset="0"/>
<stop stop-color="#3599A3" offset="1"/>
</linearGradient>
<linearGradient id="b" x1="1.8827" x2="7.495" y1="12.6" y2="9.7598" gradientUnits="userSpaceOnUse">
<stop stop-color="#3197AD" offset="0"/>
<stop stop-color="#297F92" offset="1"/>
</linearGradient>
<linearGradient id="a" x1="336.56" x2="682.59" y1="521.36" y2="182.52" gradientUnits="userSpaceOnUse">
<stop stop-color="#39A5B0" offset="0"/>
<stop stop-color="#3599A3" offset="1"/>
</linearGradient>
</defs>
</svg>
