<svg xmlns="http://www.w3.org/2000/svg" xmlns:xlink="http://www.w3.org/1999/xlink" width="200" height="200" viewBox="0 0 800 800">
  <defs>
    <style>
      .cls-1 {
        fill: #8bfeff;
      }

      .cls-1, .cls-2 {
        fill-rule: evenodd;
      }

      .cls-2 {
        fill: url(#linear-gradient);
      }
    </style>
    <linearGradient id="linear-gradient" x1="13.5" y1="401.281" x2="786.594" y2="401.281" gradientUnits="userSpaceOnUse">
      <stop offset="0.14" stop-color="#4d007b"/>
      <stop offset="0.303" stop-color="#441297" stop-opacity="0.988"/>
      <stop offset="0.858" stop-color="#2451f7"/>
      <stop offset="0.932" stop-color="#2451f7"/>
    </linearGradient>
  </defs>
  <path id="Color_Fill_1" data-name="Color Fill 1" class="cls-1" d="M369,256c54.236-.334,96.93,2.833,133,20l54,31c27.415,4.649,95.7-33.034,115-43l2,1c-1.061,37.771-61.553,92.274-85,113-51.011,45.09-108.918,102.171-184,121-23.4,5.869-72.248-24.3-86-33-59.368-37.581-106.835-78.24-156-125-17.619-16.757-47.63-44.194-49-75l1-2c16.2,8.461,99.866,50.427,122,45l57-33,51-16C352.944,257.4,361.963,259.843,369,256ZM562,462c19.37,9.984,16.454,62.25,6,80-29.981,50.906-93.391,53.909-133,10,0.611-5.766,1.624-5.628,4-9l33-18c10.193,2.683,14.05,10.332,26,12,18.28,2.551,33.167-12.633,36-26q-0.5-11-1-22C536.593,476.167,552.762,469.708,562,462Zm-348,5c43.653,13.729,19.519,50.955,43,67,16.427,11.225,30.711-.483,43-4,15.876-4.543,41.927,14.514,47,23-9.777,22.364-52.645,44.17-87,31C217.957,567.883,186.009,520.426,214,467Z"/>
  <path id="Gradient_Fill_1" data-name="Gradient Fill 1" class="cls-2" d="M373,15c43.732-.6,82.562,1.145,117,10C681.791,74.317,852.922,285.215,761,536,709.509,676.479,597.552,758.844,430,785c-63.142,9.857-129.294-9.47-172-27C139.43,709.331,58.94,620.184,24,488c-7.139-27.008-4.536-52.894-9-85-6.4-46.014,8.723-100.689,22-135C77.406,163.583,151.637,83.171,255,42l71-21Zm-5,241-67,17-45,23-16,12c-26.506,8.537-107.528-36.948-128-44v7c31.606,74.115,120.6,144.338,188,184,25.262,14.865,53.807,36.316,86,43,36.1,7.5,68.878-19.721,88-33,57.056-39.622,105.625-77.53,153-126,12.975-13.275,48.044-51.273,46-73l-3-1c-14.349,8.748-94.33,48.168-118,41-17.611-5.333-42.373-26.2-61-35C458.286,255.55,415.5,256.015,368,256ZM560,463c-8.251,7.458-22.483,13.232-26,25-7.2,24.1,4.525,32.446-16,45-21.39,13.083-37.816-10.072-47-8-10.155,2.291-28.045,16.4-36,23,0.644,3.635.4,3.027,2,5,30.124,55.213,119.111,28.176,136-21C579.609,512.756,578.523,466.485,560,463Zm-344,4c-12.2,10.832-14.684,39.453-9,59,9.475,32.581,25.62,48.953,57,59,29.411,9.417,78-7.733,82-33-6.978-7.523-28.223-25.714-44-22-10.341,2.434-28.352,14.654-44,5-15.534-9.584-5.9-20.7-12-41C242.678,482.946,225.31,472.726,216,467Z"/>
</svg>
