<?xml version="1.0" encoding="UTF-8" standalone="no"?>
<svg
   xmlns:dc="http://purl.org/dc/elements/1.1/"
   xmlns:cc="http://creativecommons.org/ns#"
   xmlns:rdf="http://www.w3.org/1999/02/22-rdf-syntax-ns#"
   xmlns:svg="http://www.w3.org/2000/svg"
   xmlns="http://www.w3.org/2000/svg"
   xmlns:sodipodi="http://sodipodi.sourceforge.net/DTD/sodipodi-0.dtd"
   xmlns:inkscape="http://www.inkscape.org/namespaces/inkscape"
   viewBox="0 0 48 48"
   width="48px"
   height="48px"
   version="1.1"
   id="svg6"
   sodipodi:docname="icons8-linktree.svg"
   inkscape:version="0.92.4 (5da689c313, 2019-01-14)">
  <metadata
     id="metadata12">
    <rdf:RDF>
      <cc:Work
         rdf:about="">
        <dc:format>image/svg+xml</dc:format>
        <dc:type
           rdf:resource="http://purl.org/dc/dcmitype/StillImage" />
      </cc:Work>
    </rdf:RDF>
  </metadata>
  <defs
     id="defs10" />
  <sodipodi:namedview
     pagecolor="#ffffff"
     bordercolor="#666666"
     borderopacity="1"
     objecttolerance="10"
     gridtolerance="10"
     guidetolerance="10"
     inkscape:pageopacity="0"
     inkscape:pageshadow="2"
     inkscape:window-width="1920"
     inkscape:window-height="1017"
     id="namedview8"
     showgrid="false"
     inkscape:zoom="13.906433"
     inkscape:cx="28.487215"
     inkscape:cy="24.368677"
     inkscape:window-x="1912"
     inkscape:window-y="-8"
     inkscape:window-maximized="1"
     inkscape:current-layer="svg6" />
  <path
     fill="#1de9b6"
     d="M18.89,32H21v8c0,1.1-0.9,2-2,2h-4c-1.1,0-2-0.9-2-2v-8H4.89c-1.52,0-2.48-1.64-1.75-2.97 L15.25,7.16c0.76-1.37,2.74-1.37,3.5,0l4.85,9.74l-6.46,12.13C16.41,30.36,17.37,32,18.89,32z"
     id="path2"
     style="fill:#ffffff;fill-opacity:1" />
  <path
     fill="#26a69a"
     d="M43.11,32H35v8c0,1.1-0.9,2-2,2h-4c-1.1,0-2-0.9-2-2v-8h2.11c1.52,0,2.48-1.64,1.75-2.97L24.3,16.9 l4.95-9.74c0.76-1.37,2.74-1.37,3.5,0l12.11,21.87C45.59,30.36,44.63,32,43.11,32z"
     id="path4"
     style="fill:#ffffff;fill-opacity:1" />
</svg>
