<?xml version="1.0" encoding="iso-8859-1"?>
<!-- Generator: Adobe Illustrator 19.0.0, SVG Export Plug-In . SVG Version: 6.00 Build 0)  -->
<svg version="1.1" id="Capa_1" xmlns="http://www.w3.org/2000/svg" xmlns:xlink="http://www.w3.org/1999/xlink" x="0px" y="0px"
	 viewBox="0 0 460 460" style="enable-background:new 0 0 460 460;fill:#fff;" xml:space="preserve">
<g id="XMLID_460_">
	<path id="XMLID_461_" d="M460,110V80H340v300h120v-30c-16,0-30-13.431-30-30s14-30,30-30v-30c-16,0-30-13.431-30-30s14-30,30-30
		v-30c-16,0-30-13.431-30-30S444,110,460,110z"/>
	<path id="XMLID_462_" d="M0,110c17,0,30,13.431,30,30s-13,30-30,30v30c17,0,30,13.431,30,30s-13,30-30,30v30c17,0,30,13.431,30,30
		s-13,30-30,30v30h310V80H0V110z"/>
</g>
<g>
</g>
<g>
</g>
<g>
</g>
<g>
</g>
<g>
</g>
<g>
</g>
<g>
</g>
<g>
</g>
<g>
</g>
<g>
</g>
<g>
</g>
<g>
</g>
<g>
</g>
<g>
</g>
<g>
</g>
</svg>
