<svg xmlns="http://www.w3.org/2000/svg" xmlns:xlink="http://www.w3.org/1999/xlink" viewBox="0 0 3084.42 3645.24">
    <defs>
        <style>
            .cls-1{isolation:isolate;}
            .cls-2{fill:url(#linear-gradient);}
            .cls-3{fill:url(#linear-gradient-2);}
            .cls-4{fill:url(#linear-gradient-3);}
            .cls-5{fill:url(#linear-gradient-4);}
            .cls-6{fill:url(#linear-gradient-5);}
            .cls-7{fill:url(#linear-gradient-6);}
            .cls-8{fill:#69e2f3;}
            .cls-9{fill:#1bcff2;}
            .cls-10{opacity:0.6;fill:url(#linear-gradient-7);}
            .cls-10,.cls-11,.cls-12,.cls-13,.cls-14,.cls-15,.cls-16,.cls-17,.cls-18,.cls-19,.cls-20,.cls-21,.cls-22{mix-blend-mode:screen;}
            .cls-11{fill:url(#radial-gradient);}
            .cls-12{fill:url(#radial-gradient-2);}
            .cls-13{fill:url(#radial-gradient-3);}
            .cls-14{fill:url(#radial-gradient-4);}
            .cls-15{fill:url(#radial-gradient-5);}
            .cls-16{fill:url(#radial-gradient-6);}
            .cls-17{fill:url(#radial-gradient-7);}
            .cls-18{fill:url(#radial-gradient-8);}
            .cls-19{fill:url(#radial-gradient-9);}
            .cls-20{fill:url(#radial-gradient-10);}
            .cls-21{fill:url(#radial-gradient-11);}
            .cls-22{fill:url(#radial-gradient-12);}
        </style>
        <linearGradient id="linear-gradient" x1="927.89" y1="3617.87" x2="4012.31" y2="3617.87" gradientUnits="userSpaceOnUse">
            <stop offset="0" stop-color="#850f99"/>
            <stop offset="0.51" stop-color="#57058d"/>
            <stop offset="1" stop-color="#345ccd"/>
        </linearGradient>
        <linearGradient id="linear-gradient-2" x1="928.11" y1="3134.37" x2="4012.31" y2="3134.37" gradientUnits="userSpaceOnUse">
            <stop offset="0" stop-color="#643699"/>
            <stop offset="1" stop-color="#dc0189"/>
        </linearGradient>
        <linearGradient id="linear-gradient-3" x1="1098" y1="3283.49" x2="3842.21" y2="3283.49" xlink:href="#linear-gradient"/>
        <linearGradient id="linear-gradient-4" x1="1098.18" y1="2853.32" x2="3842.21" y2="2853.32" xlink:href="#linear-gradient-2"/>
        <linearGradient id="linear-gradient-5" x1="1249.33" y1="3013.97" x2="3690.87" y2="3013.97" xlink:href="#linear-gradient"/>
        <linearGradient id="linear-gradient-6" x1="1249.5" y1="2631.24" x2="3690.87" y2="2631.24" xlink:href="#linear-gradient-2"/>
        <linearGradient id="linear-gradient-7" x1="2470.36" y1="3162.29" x2="2470.36" y2="818.27" gradientUnits="userSpaceOnUse">
            <stop offset="0" stop-color="#18ffff"/>
            <stop offset="1" stop-opacity="0"/>
        </linearGradient>
        <radialGradient id="radial-gradient" cx="2885.48" cy="1938.88" r="149.11" gradientUnits="userSpaceOnUse">
            <stop offset="0.05" stop-color="#18ffff"/>
            <stop offset="0.13" stop-color="#13caca" stop-opacity="0.79"/>
            <stop offset="0.23" stop-color="#0d8e8e" stop-opacity="0.56"/>
            <stop offset="0.32" stop-color="#095b5b" stop-opacity="0.36"/>
            <stop offset="0.41" stop-color="#053434" stop-opacity="0.2"/>
            <stop offset="0.5" stop-color="#021717" stop-opacity="0.09"/>
            <stop offset="0.57" stop-color="#010606" stop-opacity="0.02"/>
            <stop offset="0.62" stop-opacity="0"/>
        </radialGradient>
        <radialGradient id="radial-gradient-2" cx="1967.38" cy="1511.19" r="149.11" xlink:href="#radial-gradient"/>
        <radialGradient id="radial-gradient-3" cx="3018.49" cy="1454.49" r="149.11" xlink:href="#radial-gradient"/>
        <radialGradient id="radial-gradient-4" cx="1986.57" cy="790.25" r="47.16" xlink:href="#radial-gradient"/>
        <radialGradient id="radial-gradient-5" cx="2597.17" cy="2240.34" r="47.16" xlink:href="#radial-gradient"/>
        <radialGradient id="radial-gradient-6" cx="1919.79" cy="380.67" r="86.92" xlink:href="#radial-gradient"/>
        <radialGradient id="radial-gradient-7" cx="2503.29" cy="1551.05" r="100.32" xlink:href="#radial-gradient"/>
        <radialGradient id="radial-gradient-8" cx="2465.86" cy="2696.17" r="149.11" xlink:href="#radial-gradient"/>
        <radialGradient id="radial-gradient-9" cx="2272.93" cy="2001.23" r="62.36" xlink:href="#radial-gradient"/>
        <radialGradient id="radial-gradient-10" cx="1883.01" cy="2427.02" r="47.55" xlink:href="#radial-gradient"/>
        <radialGradient id="radial-gradient-11" cx="2947.83" cy="2400.73" r="62.36" xlink:href="#radial-gradient"/>
        <radialGradient id="radial-gradient-12" cx="1835.47" cy="1858.12" r="62.36" xlink:href="#radial-gradient"/>
    </defs>
    <title>pyramid</title>
    <g class="cls-1">
        <g id="Layer_1" data-name="Layer 1">
            <path class="cls-2" d="M4011.74,3141.74c-.21,2.4-.38,4.81-.82,7.21-.36,2-1,3.9-1.47,5.86-.59,2.27-1.15,4.56-1.95,6.81-.66,1.87-1.54,3.71-2.35,5.57-1,2.38-2.07,4.77-3.34,7.13-.92,1.7-2,3.37-3,5.06-1.66,2.68-3.41,5.34-5.37,8-1.16,1.56-2.43,3.08-3.69,4.62a133.06,133.06,0,0,1-9.68,10.41c-1.27,1.22-2.42,2.47-3.75,3.68-2.19,2-4.62,3.87-7,5.79-2.1,1.68-4.12,3.39-6.38,5-2.57,1.87-5.42,3.65-8.19,5.46s-5.59,3.78-8.67,5.57L2636.66,3988.84a239.92,239.92,0,0,1-21.55,10.9c-2.14,1-4.33,1.87-6.52,2.78q-8.76,3.67-18,6.81c-2.19.74-4.33,1.54-6.56,2.25-3.87,1.22-7.83,2.29-11.79,3.36-3,.81-5.93,1.69-9,2.42-4.17,1-8.43,1.85-12.69,2.71-2.85.58-5.68,1.23-8.56,1.74-8.56,1.51-17.25,2.7-26,3.62-2.69.28-5.4.45-8.1.68-5.16.42-10.31.8-15.5,1-3.29.14-6.58.21-9.87.27-4.18.08-8.37.11-12.56.06-3.48,0-7-.15-10.45-.28-3.88-.16-7.75-.36-11.61-.63q-5.29-.37-10.56-.88-5.73-.55-11.43-1.28-5.11-.65-10.19-1.44c-4.09-.63-8.14-1.35-12.17-2.12-3.15-.6-6.3-1.22-9.41-1.9-4.83-1.06-9.58-2.25-14.3-3.5-2.59-.69-5.2-1.34-7.75-2.08-8.4-2.46-16.62-5.2-24.55-8.29-1.11-.44-2.15-.94-3.25-1.38a249.26,249.26,0,0,1-31-14.85L995.44,3227.93c-45-25.95-67.43-60.08-67.33-94.16l-.22,74.48c-.09,34.08,22.38,68.2,67.35,94.17l1317.92,760.9a248.34,248.34,0,0,0,31,14.84c.7.28,1.3.68,2,1V4079h0v.12c.41.15.85.26,1.25.41,7.94,3.1,16.14,5.84,24.54,8.29.67.2,1.29.47,2,.66,1.91.55,3.92.93,5.86,1.44,4.69,1.24,9.4,2.43,14.2,3.48,1.28.28,2.5.66,3.78.93,1.89.39,3.83.64,5.73,1,4,.75,8,1.46,12.06,2.09,1.64.26,3.24.61,4.88.85s3.6.38,5.39.6q5.68.73,11.39,1.27c1.83.19,3.62.46,5.46.61,1.69.15,3.4.16,5.1.28q5.8.41,11.62.62c1.94.08,3.86.26,5.8.31,1.55,0,3.11,0,4.66,0,4.17.06,8.33,0,12.51-.06,2.08,0,4.17,0,6.25,0,1.24,0,2.46-.19,3.69-.24,5.18-.23,10.31-.6,15.45-1,2.07-.17,4.16-.21,6.22-.42.65-.06,1.26-.19,1.9-.26,8.76-.92,17.43-2.11,26-3.62.43-.08.87-.1,1.29-.18,2.52-.46,5-1.09,7.46-1.59,4.19-.85,8.39-1.68,12.5-2.68,3.08-.74,6.07-1.62,9.1-2.44,3.92-1.07,7.84-2.13,11.67-3.34.84-.26,1.72-.46,2.55-.72,1.4-.46,2.68-1.07,4.07-1.55q9.16-3.12,17.91-6.78c2.2-.92,4.4-1.82,6.55-2.8a235.77,235.77,0,0,0,21.54-10.89L3945.81,3302.4c.94-.54,1.87-1.09,2.78-1.64,2.1-1.26,3.88-2.63,5.88-3.92,2.78-1.81,5.62-3.6,8.2-5.48,2.27-1.64,4.29-3.36,6.4-5.05,2.37-1.9,4.8-3.8,7-5.76.43-.39,1-.76,1.4-1.15.89-.83,1.5-1.71,2.36-2.55a129.84,129.84,0,0,0,9.69-10.42c.64-.77,1.49-1.48,2.09-2.26s1-1.56,1.58-2.33c2-2.63,3.72-5.29,5.37-8,.69-1.12,1.61-2.2,2.25-3.33.32-.57.5-1.16.81-1.74,1.28-2.36,2.3-4.74,3.34-7.13.6-1.38,1.41-2.73,1.93-4.12.18-.47.24-1,.41-1.43.81-2.28,1.37-4.57,2-6.86.4-1.53,1-3.05,1.3-4.58.09-.41.07-.82.15-1.24.44-2.4.61-4.81.82-7.23.14-1.55.49-3.1.54-4.65l0-2,.21-74.48C4012.3,3137.29,4011.94,3139.51,4011.74,3141.74Z" transform="translate(-927.89 -456.74)"/>
            <path class="cls-3" d="M3944.83,3040.75c89.54,51.69,90,135.56,1.19,187.17L2636.66,3988.84c-89,51.7-233.74,51.7-323.29,0L995.44,3227.93c-89.39-51.61-89.87-135.47-.9-187.17L2303.9,2279.84c88.82-51.62,233.6-51.62,323,0Z" transform="translate(-927.89 -456.74)"/>
            <path class="cls-4" d="M3841.71,2859.87c-.19,2.14-.35,4.28-.73,6.41-.33,1.75-.86,3.48-1.31,5.21-.53,2-1,4.06-1.74,6.07-.59,1.66-1.37,3.3-2.08,5-.93,2.12-1.85,4.25-3,6.34-.82,1.52-1.79,3-2.72,4.5-1.47,2.39-3,4.76-4.77,7.1-1,1.39-2.16,2.75-3.29,4.11a117.13,117.13,0,0,1-8.61,9.26c-1.13,1.09-2.15,2.21-3.34,3.28-1.94,1.75-4.11,3.44-6.23,5.14-1.87,1.51-3.67,3-5.68,4.49-2.29,1.66-4.81,3.25-7.29,4.86s-5,3.37-7.71,5l-1164.94,677a209.52,209.52,0,0,1-19.17,9.69c-1.9.87-3.86,1.67-5.8,2.48q-7.8,3.27-16,6.06c-1.95.66-3.86,1.38-5.83,2-3.45,1.08-7,2-10.5,3-2.65.72-5.28,1.49-8,2.14-3.71.9-7.5,1.65-11.29,2.42-2.54.51-5.05,1.09-7.62,1.54-7.61,1.35-15.34,2.41-23.14,3.22-2.39.25-4.8.41-7.2.6-4.59.39-9.18.73-13.79.93-2.93.12-5.85.18-8.78.23-3.73.07-7.46.11-11.18.06-3.1,0-6.2-.14-9.3-.26-3.44-.13-6.89-.31-10.33-.55q-4.71-.33-9.39-.78-5.1-.5-10.17-1.14-4.56-.58-9.07-1.29-5.46-.84-10.82-1.88c-2.81-.53-5.61-1.08-8.38-1.69-4.3-.94-8.52-2-12.72-3.12-2.3-.61-4.62-1.19-6.9-1.85-7.47-2.18-14.78-4.62-21.84-7.37-1-.39-1.92-.84-2.89-1.23a220.17,220.17,0,0,1-27.55-13.21l-1172.56-677c-40-23.1-60-53.46-59.92-83.78L1098,2919c-.09,30.33,19.9,60.69,59.91,83.78l1172.56,677A221.54,221.54,0,0,0,2358,3693c.62.25,1.15.61,1.77.86v-.1h0v.1c.37.13.76.23,1.12.37,7.06,2.75,14.36,5.19,21.83,7.37.6.18,1.15.42,1.75.59,1.71.49,3.49.82,5.21,1.28,4.18,1.11,8.37,2.16,12.64,3.1,1.14.24,2.23.59,3.37.82,1.67.35,3.4.57,5.09.89q5.34,1,10.73,1.87c1.46.22,2.88.54,4.34.75s3.21.33,4.8.53c3.37.43,6.74.81,10.14,1.14,1.62.16,3.22.41,4.84.54s3,.14,4.55.25c3.44.23,6.88.41,10.34.55,1.72.06,3.43.23,5.15.27,1.39,0,2.77,0,4.15,0,3.71,0,7.42,0,11.13-.05,1.86,0,3.71,0,5.56,0,1.1,0,2.19-.17,3.29-.22,4.6-.2,9.17-.53,13.74-.92,1.84-.15,3.71-.18,5.54-.37.57-.06,1.12-.17,1.69-.23q11.68-1.23,23.11-3.22c.38-.07.78-.09,1.15-.16,2.24-.41,4.41-1,6.63-1.42,3.73-.75,7.47-1.49,11.13-2.38,2.74-.66,5.4-1.44,8.09-2.18,3.49-.95,7-1.89,10.38-3,.75-.24,1.53-.41,2.27-.65,1.25-.4,2.39-.95,3.63-1.37q8.16-2.78,15.93-6c2-.82,3.91-1.62,5.83-2.48a210.6,210.6,0,0,0,19.16-9.69l1165-677c.83-.48,1.65-1,2.47-1.46,1.87-1.12,3.46-2.33,5.23-3.49,2.47-1.61,5-3.2,7.3-4.87,2-1.46,3.81-3,5.69-4.49,2.11-1.7,4.27-3.38,6.21-5.13.39-.35.86-.68,1.24-1,.8-.73,1.34-1.52,2.1-2.26a117.56,117.56,0,0,0,8.63-9.27c.56-.68,1.32-1.32,1.86-2s.89-1.39,1.4-2.08c1.75-2.33,3.31-4.7,4.78-7.09.62-1,1.43-2,2-3,.29-.52.45-1,.73-1.56,1.13-2.1,2-4.22,3-6.34.53-1.23,1.25-2.43,1.71-3.67.16-.42.22-.85.37-1.27.72-2,1.22-4.07,1.75-6.1.36-1.37.9-2.71,1.17-4.07.07-.37.06-.74.12-1.1.4-2.14.55-4.29.74-6.44.13-1.38.43-2.76.48-4.14,0-.59,0-1.19,0-1.79l.19-66.26C3842.2,2855.91,3841.88,2857.89,3841.71,2859.87Z" transform="translate(-927.89 -456.74)"/>
            <path class="cls-5" d="M3782.17,2770c79.66,46,80.09,120.61,1.06,166.54l-1164.94,677c-79.15,46-208,46-287.63,0l-1172.56-677c-79.54-45.92-80-120.53-.81-166.53l1164.94-677c79-45.93,207.83-45.93,287.37,0Z" transform="translate(-927.89 -456.74)"/>
            <path class="cls-6" d="M3690.42,2637.07c-.17,1.91-.3,3.81-.65,5.71-.29,1.55-.75,3.09-1.16,4.64-.47,1.8-.91,3.6-1.55,5.4-.52,1.47-1.22,2.93-1.85,4.4-.83,1.89-1.64,3.78-2.65,5.64-.72,1.35-1.59,2.67-2.41,4-1.32,2.12-2.7,4.23-4.26,6.31-.92,1.23-1.91,2.44-2.92,3.65a102.51,102.51,0,0,1-7.66,8.24c-1,1-1.91,2-3,2.92-1.73,1.56-3.66,3.06-5.54,4.58-1.67,1.33-3.27,2.69-5.05,4-2,1.48-4.29,2.89-6.49,4.33s-4.42,3-6.86,4.41L2601.94,3307.62c-5.41,3.14-11.16,6-17.05,8.63-1.7.76-3.43,1.47-5.16,2.2q-6.95,2.9-14.23,5.38c-1.73.59-3.43,1.23-5.19,1.78-3.06,1-6.2,1.82-9.33,2.67-2.36.64-4.7,1.33-7.1,1.91-3.31.8-6.68,1.46-10.05,2.15-2.26.45-4.49,1-6.78,1.37-6.77,1.2-13.65,2.15-20.59,2.87-2.12.22-4.27.36-6.4.53-4.09.35-8.17.64-12.27.82-2.61.12-5.21.17-7.81.22-3.32.06-6.63.09-9.95,0q-4.14-.06-8.27-.23c-3.07-.13-6.14-.28-9.19-.49-2.8-.2-5.58-.43-8.36-.7-3-.3-6-.63-9.05-1q-4-.53-8.07-1.15c-3.23-.49-6.44-1.06-9.63-1.67q-3.75-.7-7.45-1.51c-3.82-.83-7.58-1.78-11.32-2.77-2.05-.54-4.11-1.06-6.13-1.65-6.66-1.94-13.15-4.11-19.44-6.56-.87-.34-1.7-.74-2.57-1.09a197.22,197.22,0,0,1-24.51-11.75L1302.81,2705.31c-35.6-20.55-53.39-47.57-53.31-74.55l-.17,59c-.07,27,17.71,54,53.31,74.54l1043.24,602.31a193.62,193.62,0,0,0,24.5,11.75c.55.23,1,.54,1.58.76V3379h0v.08c.32.12.67.21,1,.34,6.28,2.44,12.78,4.61,19.43,6.55.53.16,1,.38,1.56.53,1.51.43,3.1.73,4.63,1.13,3.72,1,7.45,1.93,11.25,2.76,1,.22,2,.52,3,.74,1.49.3,3,.5,4.52.78,3.17.6,6.35,1.17,9.56,1.66,1.3.2,2.56.49,3.86.67s2.85.3,4.27.48c3,.39,6,.72,9,1,1.44.14,2.86.37,4.31.48s2.7.13,4,.22c3.07.21,6.13.37,9.2.49,1.53.06,3.06.21,4.59.24,1.23,0,2.46,0,3.69,0,3.3,0,6.6,0,9.9-.05,1.65,0,3.3,0,4.95,0,1,0,2-.15,2.92-.19,4.1-.18,8.17-.48,12.23-.82,1.64-.14,3.3-.17,4.93-.33.5,0,1-.15,1.5-.2,6.93-.73,13.79-1.67,20.57-2.87.33-.06.68-.08,1-.14,2-.36,3.93-.86,5.91-1.26,3.32-.67,6.64-1.33,9.9-2.12,2.43-.59,4.8-1.28,7.2-1.94,3.1-.84,6.2-1.68,9.23-2.63.67-.21,1.37-.37,2-.58,1.11-.36,2.12-.85,3.22-1.22q7.26-2.47,14.17-5.37c1.74-.73,3.48-1.44,5.19-2.22a188.76,188.76,0,0,0,17.05-8.62l1036.46-602.32c.73-.43,1.47-.86,2.19-1.3,1.66-1,3.08-2.08,4.66-3.11,2.2-1.43,4.45-2.84,6.49-4.32,1.79-1.31,3.4-2.67,5.06-4,1.88-1.5,3.8-3,5.53-4.56.34-.31.77-.6,1.1-.91.71-.65,1.2-1.36,1.88-2a104.53,104.53,0,0,0,7.67-8.24c.5-.61,1.18-1.18,1.66-1.79s.79-1.24,1.24-1.85c1.56-2.08,2.94-4.19,4.25-6.31.55-.89,1.28-1.74,1.78-2.64.26-.45.4-.92.65-1.38,1-1.87,1.82-3.75,2.64-5.64.47-1.09,1.11-2.16,1.53-3.26.14-.38.19-.76.32-1.14.64-1.8,1.09-3.61,1.57-5.43.31-1.21.79-2.41,1-3.62.07-.33.06-.65.12-1,.34-1.9.48-3.82.65-5.72.11-1.23.39-2.46.42-3.69,0-.53,0-1.06,0-1.58l.16-59C3690.87,2633.55,3690.58,2635.31,3690.42,2637.07Z" transform="translate(-927.89 -456.74)"/>
            <path class="cls-7" d="M3637.45,2557.13c70.88,40.93,71.26,107.31,1,148.17L2602,3307.62c-70.42,40.92-185,40.92-255.91,0L1302.81,2705.31c-70.77-40.86-71.15-107.24-.73-148.17l1036.46-602.32c70.31-40.86,184.91-40.86,255.67,0Z" transform="translate(-927.89 -456.74)"/>
            <path class="cls-8" d="M3396.08,2512.07c56.2,32.45,56.64,85.07.81,117.52l-822,477.7c-55.84,32.45-146.83,32.45-203,0l-827.4-477.7c-56-32.36-56.35-85.06-.51-117.51l822-477.71c55.84-32.45,146.68-32.37,202.73,0Z" transform="translate(-927.89 -456.74)"/>
            <path class="cls-9" d="M1543.92,2577.54l822-477.71c55.84-32.45,146.68-32.36,202.74,0l827.4,477.7c13.46,7.78,23.53,16.75,30.59,26.29,22.49-30.37,12.4-66.93-30.59-91.75l-827.4-477.71c-56.06-32.36-146.9-32.44-202.74,0l-822,477.72c-42.5,24.69-52.27,61.08-29.9,91.34C1521,2594,1530.74,2585.2,1543.92,2577.54Z" transform="translate(-927.89 -456.74)"/>
            <path class="cls-10" d="M3438.49,2568.49V1018.88c0-.82,0-1.63,0-2.45v-.74h-.13c-1-20.63-14.84-41.11-42.1-56.86L2568.72,481.05c-56.07-32.37-146.93-32.45-202.77,0L1543.78,958.84c-27.06,15.73-40.66,36.23-41.4,56.85h-.16v1c0,.62,0,1.22,0,1.83v1550h.21c-.93,22,12.82,44.25,41.86,61l827.55,477.78c56.21,32.46,147.22,32.46,203.07,0l822.16-477.79c28.91-16.8,42.42-39,41.23-61Z" transform="translate(-927.89 -456.74)"/>
            <path class="cls-11" d="M3034.59,1938.87a149.11,149.11,0,1,1-149.11-149.11A149.11,149.11,0,0,1,3034.59,1938.87Z" transform="translate(-927.89 -456.74)"/>
            <path class="cls-12" d="M2116.5,1511.19a149.12,149.12,0,1,1-149.11-149.11A149.11,149.11,0,0,1,2116.5,1511.19Z" transform="translate(-927.89 -456.74)"/>
            <path class="cls-13" d="M3167.6,1454.49a149.11,149.11,0,1,1-149.11-149.11A149.11,149.11,0,0,1,3167.6,1454.49Z" transform="translate(-927.89 -456.74)"/>
            <path class="cls-14" d="M2033.73,790.25a47.16,47.16,0,1,1-47.16-47.16A47.16,47.16,0,0,1,2033.73,790.25Z" transform="translate(-927.89 -456.74)"/>
            <path class="cls-15" d="M2644.33,2240.34a47.16,47.16,0,1,1-47.17-47.16A47.16,47.16,0,0,1,2644.33,2240.34Z" transform="translate(-927.89 -456.74)"/>
            <circle class="cls-16" cx="1919.79" cy="380.67" r="86.92"/>
            <path class="cls-17" d="M2603.61,1551.05a100.32,100.32,0,1,1-100.32-100.32A100.31,100.31,0,0,1,2603.61,1551.05Z" transform="translate(-927.89 -456.74)"/>
            <path class="cls-18" d="M2615,2696.17a149.12,149.12,0,1,1-149.12-149.12A149.11,149.11,0,0,1,2615,2696.17Z" transform="translate(-927.89 -456.74)"/>
            <path class="cls-19" d="M2335.29,2001.23a62.36,62.36,0,1,1-62.36-62.36A62.36,62.36,0,0,1,2335.29,2001.23Z" transform="translate(-927.89 -456.74)"/>
            <path class="cls-20" d="M1930.56,2427a47.55,47.55,0,1,1-47.54-47.55A47.53,47.53,0,0,1,1930.56,2427Z" transform="translate(-927.89 -456.74)"/>
            <path class="cls-21" d="M3010.19,2400.73a62.36,62.36,0,1,1-62.36-62.36A62.36,62.36,0,0,1,3010.19,2400.73Z" transform="translate(-927.89 -456.74)"/>
            <path class="cls-22" d="M1897.82,1858.12a62.36,62.36,0,1,1-62.35-62.36A62.36,62.36,0,0,1,1897.82,1858.12Z" transform="translate(-927.89 -456.74)"/>
        </g>
    </g>
</svg>