<?xml version="1.0" encoding="UTF-8"?>
<svg enable-background="new 0 0 1920 1920" version="1.1" viewBox="0 0 1920 1920" xml:space="preserve" xmlns="http://www.w3.org/2000/svg">
<style type="text/css">
	.st0{fill:url(#a);}
	.st1{fill:#2D2D2D;}
	.st2{fill:#FFFFFF;}
	.st3{fill-rule:evenodd;clip-rule:evenodd;fill:#FFFFFF;}
</style>
<g transform="matrix(1.055 0 0 1.055 -52.824 -52.831)">
	
		<linearGradient id="a" x1="61.2" x2="1858.8" y1="960" y2="960" gradientUnits="userSpaceOnUse">
			<stop stop-color="#6100FB" offset=".2481"/>
			<stop stop-color="#2E5CF5" offset="1"/>
		</linearGradient>
		<path class="st0" d="m1853.4 933.1-242.6-585.8c-7.1-17.2-20.8-31-38.1-38.1l-585.8-242.6c-17.2-7.1-36.6-7.1-53.9 0l-585.7 242.6c-17.2 7.1-31 20.8-38.1 38.1l-242.6 585.8c-7.1 17.2-7.1 36.6 0 53.9l242.6 585.8c7.1 17.2 20.8 31 38.1 38.1l585.8 242.6c17.2 7.1 36.6 7.1 53.9 0l585.8-242.6c17.2-7.1 31-20.8 38.1-38.1l242.6-585.8c7.1-17.3 7.1-36.7-0.1-53.9z" fill="url(#a)"/>
	
	<path class="st1" d="m1345.7 1388.6-365.7 151.5-410.2-169.9-169.8-410.2 169.9-410.2 410.1-169.9 365.7 151.5 117.7-84.9-462.1-191.4c-6.8-2.8-14-4.2-21.3-4.2s-14.4 1.4-21.3 4.2l-462.1 191.5c-13.6 5.6-24.4 16.4-30.1 30.1l-191.4 462c-5.6 13.6-5.6 28.9 0 42.5l191.4 462.1c5.6 13.6 16.4 24.4 30.1 30.1l462.1 191.4c6.8 2.8 14 4.2 21.3 4.2s14.4-1.4 21.3-4.2l462.1-191.4z"/>
	
		<path class="st2" d="m1514.1 646.3v67.5c75.5 14.5 119.7 69.9 119.7 157.5v7.2h-106.1v-12.9c0-44.2-20.9-67.5-56.3-67.5-36.2 0-53.8 21.7-53.8 53 0 37.8 41.8 54.6 88.4 72.3l16.1 5.6c58.7 21.7 127 53 127 139.8 0 72.3-43.4 136.6-135 149.5v62.7h-76.3v-63.5c-80.4-12.1-128.6-64.3-128.6-147.9v-18.5h105.3v12.9c0 44.2 20.1 68.3 64.3 68.3 41.8 0 60.3-25.7 60.3-58.7 0-34.6-29.7-44.2-69.9-58.7l-32.9-12.1c-61.1-21.7-127.8-49-127.8-146.3 0-83.6 54.6-133.4 129.4-144.6v-65.9h76.2z"/>
	
	
		
			<polygon class="st3" points="931.2 953.8 751.4 766.6 751.4 650.3 1209.5 650.3 1209.5 777.9 940.8 777.9 1107.4 952.3 935 1142.1 1209.5 1142.1 1209.5 1269.7 750.6 1269.7 750.6 1153.7"/>
		
	
</g>
</svg>
