<svg id="_ÎÓÈ_1" data-name="—ÎÓÈ_1" xmlns="http://www.w3.org/2000/svg" xmlns:xlink="http://www.w3.org/1999/xlink" viewBox="0 0 266.24 320.82"><defs><style>.cls-1{fill:url(#linear-gradient);}.cls-2{fill:url(#linear-gradient-2);}.cls-3{fill:#6de0f5;}</style><linearGradient id="linear-gradient" x1="215.39" y1="206.85" x2="446.24" y2="206.85" gradientUnits="userSpaceOnUse"><stop offset="0" stop-color="#850f99"/><stop offset="0.51" stop-color="#57058d"/><stop offset="1" stop-color="#345ccd"/></linearGradient><linearGradient id="linear-gradient-2" x1="179.99" y1="219.26" x2="416.33" y2="219.26" gradientTransform="translate(150.54 -120.13) rotate(30.16)" gradientUnits="userSpaceOnUse"><stop offset="0" stop-color="#850f99"/><stop offset="0.51" stop-color="#6638b5"/><stop offset="1" stop-color="#3871ca"/></linearGradient></defs><title>coin</title><path class="cls-1" d="M446.16,265.32c0-.34,0-.69,0-1,0-.71-.07-1.42-.1-2.14s-.07-1.69-.12-2.55c0-.65-.11-1.31-.16-2s-.11-1.51-.18-2.27c-.05-.5-.07-1-.12-1.5-.1-1.1-.24-2.2-.37-3.29-.07-.63-.13-1.25-.21-1.87l-.06-.63q-.39-3-.85-5.93a.68.68,0,0,1,0-.14c-.05-.29-.11-.58-.15-.87-.27-1.65-.55-3.31-.86-5-.06-.31-.13-.61-.19-.91-.15-.79-.31-1.57-.47-2.35-.2-1-.38-1.94-.59-2.91-.12-.54-.26-1.08-.38-1.62-.19-.86-.4-1.72-.6-2.58-.16-.66-.3-1.32-.47-2s-.42-1.6-.63-2.4-.44-1.73-.68-2.59c-.11-.43-.21-.85-.33-1.28-.32-1.14-.67-2.28-1-3.42-.22-.73-.42-1.47-.65-2.2-.06-.21-.11-.41-.18-.62q-.93-3.06-1.95-6.11l0-.08-.19-.54c-.61-1.81-1.23-3.61-1.88-5.4l-.33-.86c-.24-.67-.5-1.34-.75-2-.37-1-.72-1.94-1.1-2.91-.24-.62-.5-1.24-.75-1.86s-.59-1.49-.9-2.24c-.22-.54-.43-1.09-.66-1.64-.45-1.1-.94-2.19-1.41-3.29-.25-.57-.48-1.15-.74-1.72-.09-.21-.17-.42-.26-.62-.85-1.91-1.71-3.81-2.6-5.71l-.12-.25c-.25-.53-.51-1.05-.77-1.58-.7-1.47-1.4-2.94-2.13-4.41-.11-.23-.24-.45-.35-.68-.6-1.19-1.22-2.36-1.83-3.54-.5-1-1-1.92-1.48-2.87l-.29-.52q-2.48-4.59-5.11-9.09c-.15-.26-.28-.52-.43-.78s-.36-.56-.53-.85q-3.77-6.33-7.81-12.44c-.15-.22-.28-.45-.42-.67-.25-.37-.52-.73-.77-1.1-2.19-3.23-4.41-6.43-6.71-9.56h0l-.09-.13c-1.62-2.19-3.26-4.34-4.94-6.48l-.22-.29c-1.25-1.59-2.52-3.15-3.8-4.7-.24-.29-.47-.59-.71-.87l-.05-.06q-2.25-2.72-4.56-5.35a2.73,2.73,0,0,1-.23-.25c-.47-.53-.95-1-1.42-1.57-1-1.1-2-2.2-2.95-3.27-.19-.2-.38-.39-.57-.6-.67-.71-1.34-1.41-2-2.11s-1.49-1.59-2.25-2.36c-.27-.28-.56-.55-.84-.83-.74-.75-1.48-1.47-2.23-2.21s-1.27-1.27-1.91-1.89c-.36-.35-.74-.68-1.1-1-.8-.76-1.6-1.5-2.41-2.24-.56-.52-1.12-1.06-1.68-1.57L359.12,89c-.8-.72-1.62-1.42-2.43-2.12-.5-.43-1-.88-1.49-1.3s-1.08-.88-1.62-1.32c-.79-.66-1.59-1.31-2.39-2-.41-.34-.82-.69-1.24-1-.68-.53-1.37-1-2.05-1.56s-1.48-1.14-2.23-1.7c-.3-.23-.6-.47-.91-.69-.91-.68-1.83-1.31-2.75-2-.63-.45-1.26-.91-1.9-1.35l-.48-.35q-2.5-1.71-5-3.31l0,0-.39-.23c-1.52-1-3-1.9-4.57-2.8l-1.16-.68c-1.26-.73-2.51-1.43-3.76-2.1-.47-.26-.94-.48-1.41-.73-.65-.35-1.29-.68-1.94-1L319.85,62c-.79-.39-1.58-.74-2.37-1.12-.57-.27-1.14-.55-1.71-.8l-.7-.33q-2.37-1.07-4.73-2h0l0,0q-2.37-.95-4.72-1.77l-.61-.2c-.57-.2-1.14-.37-1.71-.56-.8-.26-1.61-.55-2.41-.79l-1.19-.33-2.08-.57L296,53.07c-.56-.14-1.11-.24-1.67-.37l-2.07-.46c-.37-.07-.74-.17-1.1-.24-.66-.13-1.3-.21-1.95-.32s-1.59-.28-2.38-.4l-.84-.14c-.67-.08-1.31-.12-2-.2-.85-.09-1.7-.19-2.55-.26-.24,0-.5,0-.74-.07-.58,0-1.13,0-1.71-.06-1,0-2-.09-3-.1-.28,0-.57,0-.84,0-.44,0-.86,0-1.29.06-1.25,0-2.49.08-3.72.17-.37,0-.75,0-1.12.05s-.54.09-.81.12c-1.88.2-3.73.46-5.53.81-.16,0-.32,0-.47.06l-.13,0L261,52c-1.13.26-2.25.52-3.34.83-.54.15-1.06.33-1.58.49-.71.22-1.42.42-2.11.67-.18.06-.34.14-.52.21-1.06.38-2.09.82-3.13,1.27-.5.22-1,.41-1.5.64-1.51.71-3,1.47-4.42,2.3l-29,16.84c1.44-.83,2.92-1.59,4.42-2.3.5-.23,1-.42,1.52-.64,1-.45,2.06-.89,3.12-1.27.86-.32,1.74-.6,2.62-.88.53-.16,1.05-.34,1.58-.49,1.1-.31,2.22-.58,3.35-.83l1.09-.26.6-.1c1.81-.34,3.66-.6,5.54-.8.63-.07,1.28-.12,1.93-.17q1.83-.14,3.72-.18c.7,0,1.41,0,2.12,0,1,0,2,0,3,.1.81,0,1.63.07,2.45.13s1.7.17,2.55.26,1.86.21,2.8.34,1.59.26,2.39.4c1,.17,2,.35,3,.56.69.14,1.38.3,2.07.46,1.09.25,2.18.52,3.28.82.7.18,1.39.37,2.09.57,1.19.35,2.39.72,3.6,1.12.57.18,1.13.36,1.7.56,1.77.61,3.54,1.25,5.33,2l.06,0c1.79.72,3.6,1.51,5.42,2.34.57.25,1.14.53,1.71.8q1.92.9,3.87,1.89l1.93,1c1.72.91,3.44,1.84,5.17,2.84q2.89,1.66,5.74,3.47c.12.09.26.16.38.24q2.79,1.78,5.55,3.69l1.9,1.35c1.22.87,2.44,1.74,3.66,2.65.75.55,1.49,1.13,2.23,1.7,1.1.85,2.2,1.7,3.29,2.57l2.39,2c1,.86,2.07,1.73,3.11,2.62.81.7,1.62,1.4,2.43,2.12,1,.89,2,1.8,3,2.72.81.75,1.62,1.49,2.42,2.25q1.51,1.44,3,2.91c.75.73,1.5,1.46,2.24,2.21,1,1,2.06,2.11,3.08,3.18.68.71,1.36,1.41,2,2.13,1.18,1.26,2.35,2.55,3.51,3.85.47.53.95,1,1.42,1.58,1.64,1.86,3.26,3.74,4.85,5.66.24.28.46.58.7.87,1.36,1.64,2.71,3.31,4,5,1.67,2.13,3.32,4.29,4.93,6.48l.1.13q3.45,4.69,6.71,9.56l1.19,1.77c2.71,4.07,5.31,8.23,7.81,12.44l1,1.62c1.75,3,3.46,6,5.1,9.11.6,1.11,1.18,2.24,1.76,3.36s1.24,2.37,1.84,3.56c.84,1.67,1.66,3.36,2.47,5,.26.55.53,1.09.79,1.64q1.53,3.25,3,6.56c.26.58.51,1.17.76,1.76.7,1.62,1.39,3.25,2.05,4.89.31.75.61,1.51.91,2.26.63,1.58,1.24,3.17,1.84,4.75.25.68.51,1.35.76,2,.76,2.08,1.5,4.17,2.2,6.26l.19.54q1.14,3.41,2.17,6.81c.22.73.42,1.46.64,2.19q.69,2.36,1.34,4.71c.23.86.45,1.73.68,2.59.38,1.46.74,2.92,1.09,4.38.21.87.41,1.73.61,2.6.34,1.5.65,3,1,4.49.16.8.33,1.59.48,2.39.38,1.95.72,3.91,1,5.86l.15.87c.36,2.24.66,4.47.94,6.69.08.63.14,1.26.21,1.89.18,1.6.34,3.19.48,4.78.07.76.13,1.52.18,2.27.12,1.52.21,3,.28,4.52,0,.72.07,1.43.1,2.14.08,2.13.13,4.25.12,6.35s-.07,4.37-.16,6.49c0,.6-.08,1.18-.11,1.78-.09,1.46-.18,2.92-.31,4.34-.08.82-.17,1.62-.25,2.43-.13,1.21-.27,2.41-.43,3.59-.12.86-.25,1.72-.39,2.57-.17,1.09-.36,2.16-.55,3.21s-.37,1.9-.57,2.83-.42,1.89-.65,2.82c-.26,1.1-.55,2.18-.84,3.24-.23.83-.47,1.66-.71,2.47-.4,1.27-.82,2.52-1.25,3.75-.23.66-.46,1.34-.71,2q-1.17,3.11-2.53,6c-.7,1.49-1.44,2.95-2.21,4.36l0,.07c-.77,1.38-1.57,2.71-2.4,4-1.21,1.88-2.5,3.65-3.84,5.35-.33.41-.66.8-1,1.2a60.15,60.15,0,0,1-4.07,4.48c-.11.1-.21.22-.31.33a59.23,59.23,0,0,1-4.76,4.1c-.39.31-.8.61-1.2.91a56,56,0,0,1-5.2,3.47l29-16.84A54,54,0,0,0,417,343l1.2-.91a57.41,57.41,0,0,0,4.75-4.1l.31-.33c1.42-1.4,2.77-2.91,4.08-4.48.33-.4.66-.79,1-1.2a63.77,63.77,0,0,0,3.84-5.35l.12-.16c.79-1.24,1.55-2.53,2.28-3.85a.43.43,0,0,0,0-.07c.74-1.34,1.46-2.73,2.13-4.16l.09-.2c.91-1.92,1.74-3.93,2.53-6,.06-.18.15-.35.22-.53.17-.48.32-1,.49-1.48.43-1.22.85-2.46,1.24-3.74.1-.34.23-.65.33-1s.25-1,.39-1.48c.29-1.06.57-2.13.84-3.22.11-.45.24-.88.34-1.33s.2-1,.31-1.51c.19-.93.38-1.86.56-2.81.09-.49.21-1,.29-1.46s.17-1.18.27-1.76c.13-.85.26-1.7.38-2.57.06-.44.14-.87.2-1.32.09-.74.15-1.52.23-2.27s.18-1.61.25-2.42c0-.34.08-.66.11-1,.09-1.11.14-2.24.2-3.37,0-.59.09-1.17.11-1.76l0-.45c.08-1.87.12-3.77.13-5.71,0-.11,0-.22,0-.34C446.24,268.88,446.22,267.1,446.16,265.32Z" transform="translate(-179.99 -50.43)"/><ellipse class="cls-2" cx="298.16" cy="219.26" rx="96.49" ry="166.58" transform="translate(-249.79 129.07) rotate(-30.16)"/><path class="cls-3" d="M336.27,202.43a69.71,69.71,0,0,0-43.1-15.68,65.23,65.23,0,0,0-39.24,12.75c-2.54,1.86-23.2-8.48-25.45-11.89-.56,5.43,4.53,15.18,12.23,25.6,12.37,16.78,32.16,36.17,45.34,40.53,14.54-.32,43.46-15.62,66.19-32.7,15.78-11.86,28-24.19,28.79-31.58C375.76,193.93,340.48,205.8,336.27,202.43Z" transform="translate(-179.99 -50.43)"/><path class="cls-3" d="M334.89,249.8h0c-3.84,2.23-7.68,4.35-11.46,6.32a9.4,9.4,0,0,1-4.74,13A10.19,10.19,0,0,1,306,264.17a108.3,108.3,0,0,1-12.58,4.27c5.24,11.6,18.72,17.63,30.44,13,12.25-4.83,17.38-19.13,11.12-31.43Z" transform="translate(-179.99 -50.43)"/><path class="cls-3" d="M251.22,257a9.53,9.53,0,0,1-.89-11.3c-2.15-2.26-4.26-4.59-6.32-6.95-5.65,8.67-4.23,21.09,3.33,28.15s18.64,6.45,25.23-1.73A104.79,104.79,0,0,1,262,257,7,7,0,0,1,251.22,257Z" transform="translate(-179.99 -50.43)"/></svg>