<?xml version="1.0" encoding="UTF-8" standalone="no"?>
<svg
   id="_ÎÓÈ_1"
   data-name="—ÎÓÈ_1"
   viewBox="0 0 266.24 320.82"
   version="1.1"
   sodipodi:docname="swap_coin_head.svg"
   inkscape:export-filename="swap_coin_head.svg"
   inkscape:export-xdpi="96"
   inkscape:export-ydpi="96"
   inkscape:version="1.2.1 (9c6d41e410, 2022-07-14)"
   xmlns:inkscape="http://www.inkscape.org/namespaces/inkscape"
   xmlns:sodipodi="http://sodipodi.sourceforge.net/DTD/sodipodi-0.dtd"
   xmlns="http://www.w3.org/2000/svg"
   xmlns:svg="http://www.w3.org/2000/svg">
  <sodipodi:namedview
     id="namedview33"
     pagecolor="#ffffff"
     bordercolor="#000000"
     borderopacity="0.25"
     inkscape:showpageshadow="2"
     inkscape:pageopacity="0.0"
     inkscape:pagecheckerboard="0"
     inkscape:deskcolor="#d1d1d1"
     showgrid="false"
     inkscape:zoom="0.73561497"
     inkscape:cx="133.22187"
     inkscape:cy="161.08971"
     inkscape:window-width="1076"
     inkscape:window-height="1321"
     inkscape:window-x="-9"
     inkscape:window-y="0"
     inkscape:window-maximized="0"
     inkscape:current-layer="_ÎÓÈ_1" />
  <defs
     id="defs18">
    <style
       id="style2">.cls-1{fill:url(#linear-gradient);}.cls-2{fill:url(#linear-gradient-2);}.cls-3{fill:#6de0f5;}</style>
    <linearGradient
       id="linear-gradient"
       x1="215.39"
       y1="206.85"
       x2="446.24"
       y2="206.85"
       gradientUnits="userSpaceOnUse">
      <stop
         offset="0"
         stop-color="#850f99"
         id="stop4" />
      <stop
         offset="0.51"
         stop-color="#57058d"
         id="stop6" />
      <stop
         offset="1"
         stop-color="#345ccd"
         id="stop8" />
    </linearGradient>
    <linearGradient
       id="linear-gradient-2"
       x1="179.99"
       y1="219.26"
       x2="416.33"
       y2="219.26"
       gradientTransform="translate(150.54 -120.13) rotate(30.16)"
       gradientUnits="userSpaceOnUse">
      <stop
         offset="0"
         stop-color="#850f99"
         id="stop11" />
      <stop
         offset="0.51"
         stop-color="#6638b5"
         id="stop13" />
      <stop
         offset="1"
         stop-color="#3871ca"
         id="stop15" />
    </linearGradient>
  </defs>
  <title
     id="title20">coin</title>
  <path
     class="cls-1"
     d="M446.16,265.32c0-.34,0-.69,0-1,0-.71-.07-1.42-.1-2.14s-.07-1.69-.12-2.55c0-.65-.11-1.31-.16-2s-.11-1.51-.18-2.27c-.05-.5-.07-1-.12-1.5-.1-1.1-.24-2.2-.37-3.29-.07-.63-.13-1.25-.21-1.87l-.06-.63q-.39-3-.85-5.93a.68.68,0,0,1,0-.14c-.05-.29-.11-.58-.15-.87-.27-1.65-.55-3.31-.86-5-.06-.31-.13-.61-.19-.91-.15-.79-.31-1.57-.47-2.35-.2-1-.38-1.94-.59-2.91-.12-.54-.26-1.08-.38-1.62-.19-.86-.4-1.72-.6-2.58-.16-.66-.3-1.32-.47-2s-.42-1.6-.63-2.4-.44-1.73-.68-2.59c-.11-.43-.21-.85-.33-1.28-.32-1.14-.67-2.28-1-3.42-.22-.73-.42-1.47-.65-2.2-.06-.21-.11-.41-.18-.62q-.93-3.06-1.95-6.11l0-.08-.19-.54c-.61-1.81-1.23-3.61-1.88-5.4l-.33-.86c-.24-.67-.5-1.34-.75-2-.37-1-.72-1.94-1.1-2.91-.24-.62-.5-1.24-.75-1.86s-.59-1.49-.9-2.24c-.22-.54-.43-1.09-.66-1.64-.45-1.1-.94-2.19-1.41-3.29-.25-.57-.48-1.15-.74-1.72-.09-.21-.17-.42-.26-.62-.85-1.91-1.71-3.81-2.6-5.71l-.12-.25c-.25-.53-.51-1.05-.77-1.58-.7-1.47-1.4-2.94-2.13-4.41-.11-.23-.24-.45-.35-.68-.6-1.19-1.22-2.36-1.83-3.54-.5-1-1-1.92-1.48-2.87l-.29-.52q-2.48-4.59-5.11-9.09c-.15-.26-.28-.52-.43-.78s-.36-.56-.53-.85q-3.77-6.33-7.81-12.44c-.15-.22-.28-.45-.42-.67-.25-.37-.52-.73-.77-1.1-2.19-3.23-4.41-6.43-6.71-9.56h0l-.09-.13c-1.62-2.19-3.26-4.34-4.94-6.48l-.22-.29c-1.25-1.59-2.52-3.15-3.8-4.7-.24-.29-.47-.59-.71-.87l-.05-.06q-2.25-2.72-4.56-5.35a2.73,2.73,0,0,1-.23-.25c-.47-.53-.95-1-1.42-1.57-1-1.1-2-2.2-2.95-3.27-.19-.2-.38-.39-.57-.6-.67-.71-1.34-1.41-2-2.11s-1.49-1.59-2.25-2.36c-.27-.28-.56-.55-.84-.83-.74-.75-1.48-1.47-2.23-2.21s-1.27-1.27-1.91-1.89c-.36-.35-.74-.68-1.1-1-.8-.76-1.6-1.5-2.41-2.24-.56-.52-1.12-1.06-1.68-1.57L359.12,89c-.8-.72-1.62-1.42-2.43-2.12-.5-.43-1-.88-1.49-1.3s-1.08-.88-1.62-1.32c-.79-.66-1.59-1.31-2.39-2-.41-.34-.82-.69-1.24-1-.68-.53-1.37-1-2.05-1.56s-1.48-1.14-2.23-1.7c-.3-.23-.6-.47-.91-.69-.91-.68-1.83-1.31-2.75-2-.63-.45-1.26-.91-1.9-1.35l-.48-.35q-2.5-1.71-5-3.31l0,0-.39-.23c-1.52-1-3-1.9-4.57-2.8l-1.16-.68c-1.26-.73-2.51-1.43-3.76-2.1-.47-.26-.94-.48-1.41-.73-.65-.35-1.29-.68-1.94-1L319.85,62c-.79-.39-1.58-.74-2.37-1.12-.57-.27-1.14-.55-1.71-.8l-.7-.33q-2.37-1.07-4.73-2h0l0,0q-2.37-.95-4.72-1.77l-.61-.2c-.57-.2-1.14-.37-1.71-.56-.8-.26-1.61-.55-2.41-.79l-1.19-.33-2.08-.57L296,53.07c-.56-.14-1.11-.24-1.67-.37l-2.07-.46c-.37-.07-.74-.17-1.1-.24-.66-.13-1.3-.21-1.95-.32s-1.59-.28-2.38-.4l-.84-.14c-.67-.08-1.31-.12-2-.2-.85-.09-1.7-.19-2.55-.26-.24,0-.5,0-.74-.07-.58,0-1.13,0-1.71-.06-1,0-2-.09-3-.1-.28,0-.57,0-.84,0-.44,0-.86,0-1.29.06-1.25,0-2.49.08-3.72.17-.37,0-.75,0-1.12.05s-.54.09-.81.12c-1.88.2-3.73.46-5.53.81-.16,0-.32,0-.47.06l-.13,0L261,52c-1.13.26-2.25.52-3.34.83-.54.15-1.06.33-1.58.49-.71.22-1.42.42-2.11.67-.18.06-.34.14-.52.21-1.06.38-2.09.82-3.13,1.27-.5.22-1,.41-1.5.64-1.51.71-3,1.47-4.42,2.3l-29,16.84c1.44-.83,2.92-1.59,4.42-2.3.5-.23,1-.42,1.52-.64,1-.45,2.06-.89,3.12-1.27.86-.32,1.74-.6,2.62-.88.53-.16,1.05-.34,1.58-.49,1.1-.31,2.22-.58,3.35-.83l1.09-.26.6-.1c1.81-.34,3.66-.6,5.54-.8.63-.07,1.28-.12,1.93-.17q1.83-.14,3.72-.18c.7,0,1.41,0,2.12,0,1,0,2,0,3,.1.81,0,1.63.07,2.45.13s1.7.17,2.55.26,1.86.21,2.8.34,1.59.26,2.39.4c1,.17,2,.35,3,.56.69.14,1.38.3,2.07.46,1.09.25,2.18.52,3.28.82.7.18,1.39.37,2.09.57,1.19.35,2.39.72,3.6,1.12.57.18,1.13.36,1.7.56,1.77.61,3.54,1.25,5.33,2l.06,0c1.79.72,3.6,1.51,5.42,2.34.57.25,1.14.53,1.71.8q1.92.9,3.87,1.89l1.93,1c1.72.91,3.44,1.84,5.17,2.84q2.89,1.66,5.74,3.47c.12.09.26.16.38.24q2.79,1.78,5.55,3.69l1.9,1.35c1.22.87,2.44,1.74,3.66,2.65.75.55,1.49,1.13,2.23,1.7,1.1.85,2.2,1.7,3.29,2.57l2.39,2c1,.86,2.07,1.73,3.11,2.62.81.7,1.62,1.4,2.43,2.12,1,.89,2,1.8,3,2.72.81.75,1.62,1.49,2.42,2.25q1.51,1.44,3,2.91c.75.73,1.5,1.46,2.24,2.21,1,1,2.06,2.11,3.08,3.18.68.71,1.36,1.41,2,2.13,1.18,1.26,2.35,2.55,3.51,3.85.47.53.95,1,1.42,1.58,1.64,1.86,3.26,3.74,4.85,5.66.24.28.46.58.7.87,1.36,1.64,2.71,3.31,4,5,1.67,2.13,3.32,4.29,4.93,6.48l.1.13q3.45,4.69,6.71,9.56l1.19,1.77c2.71,4.07,5.31,8.23,7.81,12.44l1,1.62c1.75,3,3.46,6,5.1,9.11.6,1.11,1.18,2.24,1.76,3.36s1.24,2.37,1.84,3.56c.84,1.67,1.66,3.36,2.47,5,.26.55.53,1.09.79,1.64q1.53,3.25,3,6.56c.26.58.51,1.17.76,1.76.7,1.62,1.39,3.25,2.05,4.89.31.75.61,1.51.91,2.26.63,1.58,1.24,3.17,1.84,4.75.25.68.51,1.35.76,2,.76,2.08,1.5,4.17,2.2,6.26l.19.54q1.14,3.41,2.17,6.81c.22.73.42,1.46.64,2.19q.69,2.36,1.34,4.71c.23.86.45,1.73.68,2.59.38,1.46.74,2.92,1.09,4.38.21.87.41,1.73.61,2.6.34,1.5.65,3,1,4.49.16.8.33,1.59.48,2.39.38,1.95.72,3.91,1,5.86l.15.87c.36,2.24.66,4.47.94,6.69.08.63.14,1.26.21,1.89.18,1.6.34,3.19.48,4.78.07.76.13,1.52.18,2.27.12,1.52.21,3,.28,4.52,0,.72.07,1.43.1,2.14.08,2.13.13,4.25.12,6.35s-.07,4.37-.16,6.49c0,.6-.08,1.18-.11,1.78-.09,1.46-.18,2.92-.31,4.34-.08.82-.17,1.62-.25,2.43-.13,1.21-.27,2.41-.43,3.59-.12.86-.25,1.72-.39,2.57-.17,1.09-.36,2.16-.55,3.21s-.37,1.9-.57,2.83-.42,1.89-.65,2.82c-.26,1.1-.55,2.18-.84,3.24-.23.83-.47,1.66-.71,2.47-.4,1.27-.82,2.52-1.25,3.75-.23.66-.46,1.34-.71,2q-1.17,3.11-2.53,6c-.7,1.49-1.44,2.95-2.21,4.36l0,.07c-.77,1.38-1.57,2.71-2.4,4-1.21,1.88-2.5,3.65-3.84,5.35-.33.41-.66.8-1,1.2a60.15,60.15,0,0,1-4.07,4.48c-.11.1-.21.22-.31.33a59.23,59.23,0,0,1-4.76,4.1c-.39.31-.8.61-1.2.91a56,56,0,0,1-5.2,3.47l29-16.84A54,54,0,0,0,417,343l1.2-.91a57.41,57.41,0,0,0,4.75-4.1l.31-.33c1.42-1.4,2.77-2.91,4.08-4.48.33-.4.66-.79,1-1.2a63.77,63.77,0,0,0,3.84-5.35l.12-.16c.79-1.24,1.55-2.53,2.28-3.85a.43.43,0,0,0,0-.07c.74-1.34,1.46-2.73,2.13-4.16l.09-.2c.91-1.92,1.74-3.93,2.53-6,.06-.18.15-.35.22-.53.17-.48.32-1,.49-1.48.43-1.22.85-2.46,1.24-3.74.1-.34.23-.65.33-1s.25-1,.39-1.48c.29-1.06.57-2.13.84-3.22.11-.45.24-.88.34-1.33s.2-1,.31-1.51c.19-.93.38-1.86.56-2.81.09-.49.21-1,.29-1.46s.17-1.18.27-1.76c.13-.85.26-1.7.38-2.57.06-.44.14-.87.2-1.32.09-.74.15-1.52.23-2.27s.18-1.61.25-2.42c0-.34.08-.66.11-1,.09-1.11.14-2.24.2-3.37,0-.59.09-1.17.11-1.76l0-.45c.08-1.87.12-3.77.13-5.71,0-.11,0-.22,0-.34C446.24,268.88,446.22,267.1,446.16,265.32Z"
     id="path22"
     transform="translate(-179.99 -50.43)" />
  <ellipse
     class="cls-2"
     cx="298.16"
     cy="219.26"
     rx="96.49"
     ry="166.58"
     transform="translate(-249.79 129.07) rotate(-30.16)"
     id="ellipse24" />
  <path
     id="Color_Fill_1"
     data-name="Color Fill 1"
     class="cls-1"
     d="m 53.08398,103.229 c 1.931496,0.0395 3.08092,1.25236 4.382158,1.90399 h 0.51555 v 0.23801 h 0.51555 v 0.23799 h 0.515549 v 0.23801 h 0.515541 l 0.257775,0.476 1.546651,0.47599 v 0.23801 l 1.0311,0.23801 v 0.23799 h 0.515551 v 0.23801 h 0.51555 v 0.238 h 0.515541 v 0.238 h 0.51555 v 0.238 h 0.51555 v 0.23799 h 0.51555 v 0.23801 h 0.515549 v 0.23799 h 0.515551 l 0.257766,0.47602 1.031109,0.23799 0.257775,0.47599 1.546642,0.47602 0.257775,0.476 1.288866,0.23799 v 0.238 h 0.51555 v 0.23801 l 1.288875,0.23799 v 0.23801 l 0.773325,0.23799 0.257766,0.47601 h 0.51555 v 0.23799 h 0.515559 v 0.23801 h 0.773316 v 0.238 h 1.031101 v 0.238 h 0.51555 q 0.128883,0.23801 0.257775,0.476 l 1.031099,0.23801 v 0.23799 l 1.546642,0.476 v 0.238 l 11.59985,3.57001 h 1.288875 v 0.238 h 1.288866 v 0.23801 h 1.804426 v 0.238 h 2.835512 c 2.798664,0.75373 6.287124,0.714 10.053214,0.714 3.12705,0 7.98198,0.45863 10.56876,-0.238 h 2.31996 v -0.23801 h 0.51555 v -0.23799 h 1.03109 v -0.238 h 1.0311 v -0.23801 h 1.80441 l 4.63995,-1.19 v -0.238 h 0.51555 v -0.238 h 1.0311 v -0.238 h 0.51555 v -0.238 l 1.28887,-0.23801 q 0.12888,-0.23799 0.25777,-0.47599 l 1.0311,-0.238 q 0.12889,-0.238 0.25777,-0.47601 h 0.51555 q 0.12889,-0.238 0.25778,-0.476 h 0.77331 v -0.238 h 0.51555 v -0.238 h 0.51555 q 0.12889,-0.23799 0.25778,-0.476 h 0.51555 q 0.12889,-0.23799 0.25777,-0.476 h 0.51555 q 0.12889,-0.238 0.25778,-0.476 l 1.0311,-0.23801 q 0.12889,-0.23799 0.25777,-0.47599 l 1.54665,-0.476 q 0.12888,-0.23801 0.25778,-0.476 l 1.54664,-0.47601 c 0.28741,-0.98103 0.77822,-0.91724 1.54665,-1.428 l 0.77332,-0.95201 h 0.51554 l 0.51555,-0.71399 h 0.51555 l 0.51555,-0.714 h 0.51555 l 0.51555,-0.71401 h 0.51555 l 0.51555,-0.714 h 0.51555 l 0.77332,-0.952 h 0.51555 l 0.51555,-0.714 h 0.51555 l 0.51555,-0.71401 h 0.51554 l 0.51555,-0.71399 h 1.80443 l 0.77332,2.142 0.51554,0.23799 v 0.95202 l 0.51555,0.23798 q 0.1289,0.71401 0.25777,1.42802 l 0.51555,0.238 v 0.71399 h 0.25778 q 0.12889,0.47602 0.25777,0.95201 h 0.25778 v 0.71401 l 0.51555,0.23799 v 0.714 l 0.51555,0.23801 v 0.476 h 0.25776 v 0.476 h 0.25778 v 0.47599 h 0.25777 v 0.47601 h 0.25778 q 0.1289,0.47601 0.25778,0.95201 l 0.51555,0.23799 v 0.714 l 0.51555,0.238 v 0.71401 l 0.51555,0.238 v 0.714 h 0.25778 v 0.476 l 0.51555,0.238 v 0.71401 l 0.51554,0.23799 v 0.71401 l 0.51555,0.23799 v 0.71401 l 0.51555,0.238 v 0.476 h 0.25777 v 0.71401 l 0.51555,0.23799 v 0.714 l 0.51555,0.23801 v 0.71399 h 0.25778 q 0.25777,0.71401 0.51555,1.42801 h 0.25776 v 0.476 h 0.25777 v 0.714 l 0.51555,0.238 q 0.1289,0.595 0.25778,1.19 l 0.51555,0.23801 v 0.714 h 0.25777 q 0.25778,0.714 0.51555,1.42799 h 0.25778 v 0.47602 h 0.25777 v 0.71399 l 0.51555,0.238 v 0.71401 h 0.25778 q 0.12889,0.476 0.25776,0.952 h 0.25778 v 0.714 h 0.25777 q 0.1289,0.476 0.25778,0.952 h 0.25777 v 0.714 l 0.51555,0.23801 v 0.71401 h 0.25778 v 0.476 h 0.25777 q 0.12889,0.714 0.25778,1.42799 l 0.51556,0.23801 v 0.71401 h 0.25777 q 0.12888,0.47599 0.25778,0.95199 h 0.25776 v 0.71401 h 0.25778 q 0.12888,0.47599 0.25777,0.95199 h 0.25778 v 0.714 h 0.25777 q 0.12889,0.47601 0.25778,0.95202 h 0.25777 v 0.71399 h 0.25778 v 0.476 h 0.25777 v 0.71401 h 0.25778 q 0.12887,0.47599 0.25777,0.952 h 0.25778 v 0.71401 h 0.25777 q 0.12888,0.47599 0.25778,0.95199 h 0.25776 v 0.71401 h 0.25778 v 0.47599 h 0.25777 v 0.71401 h 0.25778 q 0.12888,0.476 0.25777,0.952 h 0.25778 q 0.12888,0.714 0.25777,1.428 l 0.51555,0.238 v 0.71401 h 0.25777 v 0.714 h 0.25778 v 0.476 h 0.25777 v 0.714 h 0.25778 q 0.12889,0.47601 0.25777,0.95201 h 0.25777 v 0.952 h 0.25777 q 0.1289,0.476 0.25778,0.95201 h 0.25777 v 0.71399 h 0.25778 q 0.1289,0.47601 0.25777,0.95201 h 0.25778 q 0.1289,0.714 0.25777,1.428 h 0.25778 v 0.47601 h 0.25777 q 0.12889,0.714 0.25778,1.428 h 0.25777 v 0.476 h 0.25778 v 0.71399 h 0.25777 q 0.12889,0.47602 0.25778,0.95201 h 0.25777 v 0.952 h 0.25778 v 0.714 h 0.25777 c 0.43822,1.26927 -0.52148,3.03951 -0.77332,3.80802 q -0.12889,4.04601 -0.25778,8.09202 c -0.45342,1.52011 -0.25777,4.0365 -0.25777,5.95001 v 2.38001 h 0.25777 v 3.09401 h 0.25778 q 0.12889,2.023 0.25777,4.04602 h -0.25777 v 0.23799 h 0.25777 v 1.66601 c 0.80683,2.51162 0.97516,5.6737 1.80443,8.09202 v 1.19 h 0.25777 q 0.25778,1.54701 0.51554,3.09401 h 0.25778 q 0.25777,1.428 0.51555,2.85601 h 0.25777 q 0.25778,1.428 0.51555,2.85601 h 0.25778 q 0.12888,0.833 0.25777,1.66601 h 0.25778 q 0.12888,0.833 0.25777,1.666 h 0.25778 v 0.714 h 0.25777 v 0.95201 h 0.25778 v 0.71399 h 0.25776 v 0.71401 h 0.25777 v 0.952 h 0.25778 q 0.25777,0.714 0.51555,1.428 h 0.25777 v 0.71401 h 0.25778 q 0.25777,0.714 0.51555,1.428 h 0.25777 c 0.0859,0.31654 0.17194,0.63546 0.25778,0.952 0.17193,0.0785 0.34361,0.15946 0.51555,0.23799 v 0.47602 h 0.25777 v 0.47599 h 0.25778 v 0.476 h 0.25777 v 0.476 c 0.17194,0.0785 0.34362,0.15947 0.51555,0.23801 0.0859,0.31654 0.17194,0.63546 0.25778,0.95199 0.17193,0.0785 0.34361,0.15947 0.51555,0.23801 v 0.476 c 0.17193,0.0785 0.34361,0.15946 0.51555,0.23801 0.0851,0.31653 0.1727,0.63545 0.25777,0.95199 0.17271,0.0785 0.34284,0.15947 0.51555,0.23801 0.55422,0.76874 0.71145,1.64695 1.54664,2.142 -0.19848,0.24515 -0.71919,0.39032 -0.77331,0.476 v 0.95201 h -0.25778 v 0.71401 h -0.25777 v 0.952 h -0.25778 v 0.714 h -0.25777 v 0.71401 h -0.25778 v 0.71398 h -0.25777 v 0.71401 h -0.25778 v 0.476 h -0.25777 v 0.714 h -0.25778 c -0.0859,0.31654 -0.17193,0.63547 -0.25777,0.952 h -0.25778 v 0.47601 c -0.17193,0.0785 -0.34361,0.15945 -0.51555,0.238 v 0.476 c -0.17193,0.0785 -0.34361,0.15945 -0.51555,0.238 v 0.476 c -0.17193,0.0785 -0.34361,0.15946 -0.51555,0.238 v 0.476 c -0.25777,0.15947 -0.51555,0.31654 -0.77332,0.476 v 0.476 l -1.0311,0.71401 v 0.47599 q -1.15998,0.9532 -2.31996,1.90401 l -0.51555,0.71401 c -0.34362,0.0785 -0.68749,0.15946 -1.0311,0.238 v 0.238 h -0.51555 c -0.5488,0.26893 -1.15586,0.68782 -1.80442,0.95199 q -0.25777,1.07101 -0.51555,2.14202 h -0.51555 a 10.225653,9.4412485 0 0 0 0.25778,-1.90401 c -1.60516,0.0547 -3.11907,0.41413 -4.63994,0 h -1.54665 v -0.23801 h -1.80441 v -0.23799 h -1.80443 v -0.23801 h -1.80441 v -0.23799 h -2.06221 v -0.238 q -2.44885,-0.11781 -4.89772,-0.238 -1.28886,-1.31019 -2.57773,-2.61801 c -0.34362,-0.0785 -0.68749,-0.15947 -1.0311,-0.23801 v -0.23799 h -0.51554 c -0.0859,-0.15946 -0.17195,-0.31655 -0.25778,-0.476 h -0.77332 v -0.23801 h -0.77333 v -0.238 q -2.70663,-0.1178 -5.41326,-0.238 c -4.37984,-1.16857 -10.9812,-0.714 -16.49756,-0.714 -2.36998,0 -5.54732,-0.26894 -7.47546,0.23801 h -9.02211 c -1.78431,0.47599 -3.80732,0.82347 -5.41326,1.428 l -0.51555,0.714 h -0.25777 q -0.25778,0.714 -0.51555,1.42799 h -0.25777 l 0.25777,2.38001 h -0.51554 q -0.1289,-0.71399 -0.25778,-1.42799 c -0.945,0.0785 -1.89052,0.15946 -2.83552,0.238 v 0.238 h -3.35108 v 0.238 h -2.57773 v 0.23799 h -3.86663 v 0.23801 q -2.19108,0.59619 -4.38216,1.19001 c 0.22452,0.81632 0.53308,0.61165 0.77333,1.42799 h -0.77333 c -0.15827,-0.27845 -0.43821,-0.35937 -0.51554,-0.476 q -0.257784,-0.71399 -0.515554,-1.428 c -2.706634,0.002 -3.866617,-0.93296 -5.671043,-1.666 h -0.773316 v -0.238 h -0.51555 v -0.23801 h -0.773324 c -0.08583,-0.15946 -0.171936,-0.31654 -0.257776,-0.476 -0.343615,-0.0785 -0.687485,-0.15946 -1.0311,-0.23801 -0.08583,-0.15944 -0.171935,-0.31654 -0.257775,-0.47599 h -0.515541 v -0.238 c -0.257784,-0.0785 -0.515559,-0.15946 -0.773334,-0.238 -0.08583,-0.15947 -0.171926,-0.31654 -0.257766,-0.476 H 88.39907 l -0.51555,-0.714 h -0.51555 c -0.257775,-0.31654 -0.51555,-0.63547 -0.773325,-0.95201 h -0.515549 q -0.773316,-0.83181 -1.546642,-1.666 c -0.42971,-0.31655 -0.859157,-0.63547 -1.288875,-0.952 v -0.47601 q -1.804417,-1.54581 -3.608842,-3.09401 v -0.476 c -0.171935,-0.0785 -0.343606,-0.15945 -0.515549,-0.23798 q -0.128883,-0.35702 -0.257776,-0.71401 h -0.257767 v -0.47601 c -0.171943,-0.0785 -0.343614,-0.15945 -0.515549,-0.23799 v -0.476 c -0.257775,-0.15947 -0.51555,-0.31655 -0.773325,-0.476 v -0.47602 c -0.171935,-0.0785 -0.343616,-0.15945 -0.51555,-0.23799 v -0.238 c -0.171934,-0.0785 -0.343607,-0.15946 -0.51555,-0.23801 v -0.476 h -0.257775 c -0.332522,-0.64973 0.06852,-0.70211 -0.515541,-1.19001 a 5.460693,5.0418061 0 0 1 0.773316,-0.714 v -1.666 c 0.657321,-2.10868 1.005323,-4.53391 0.257775,-6.90201 v -3.57001 h -0.257775 v -2.14201 H 76.025896 V 217.2313 H 75.76812 v -1.428 h -0.257765 v -1.19 h -0.257776 v -1.19001 H 74.994804 V 212.4713 H 74.73702 q -0.257775,-1.42802 -0.51555,-2.85602 h -0.257775 v -0.952 h -0.257766 q -0.128892,-0.833 -0.257775,-1.666 h -0.257775 v -0.71401 h -0.257775 q -0.128883,-0.833 -0.257774,-1.666 h -0.257777 q -0.128883,-0.95201 -0.257774,-1.90401 h -0.257775 q -0.128892,-0.83301 -0.257775,-1.666 h -0.257775 v -0.714 h -0.257775 v -0.71401 h -0.257766 l -0.773325,-3.09401 h -0.257775 v -0.476 h -0.257775 v -0.714 h -0.257775 v -0.476 h -0.257776 q -0.128892,-0.71401 -0.257775,-1.428 h -0.257775 v -0.47601 h -0.257775 q -0.128883,-0.714 -0.257766,-1.428 h -0.257775 v -0.476 h -0.257775 q -0.128892,-0.714 -0.257784,-1.428 h -0.257775 l -0.257775,-0.95201 h -0.257766 v -0.714 h -0.257775 l -0.257776,-0.95201 H 65.71492 q -0.128883,-0.71399 -0.257774,-1.428 h -0.257775 v -0.476 h -0.257775 v -0.714 h -0.257775 v -0.476 h -0.257775 v -0.47601 h -0.257775 v -0.47599 h -0.257775 v -0.476 H 63.65273 v -0.47601 l -0.51555,-0.23799 -0.257775,-0.95201 -0.515551,-0.238 v -0.476 h -0.257775 v -0.476 h -0.257775 v -0.476 h -0.257775 l -0.773325,-2.14201 h -0.257766 v -0.476 h -0.257775 v -0.714 h -0.257775 v -0.47601 l -0.51556,-0.23799 v -0.47601 l -0.515541,-0.238 v -0.47599 h -0.257774 l -0.51555,-1.42802 -0.51555,-0.23798 v -0.47602 l -1.0311,-0.714 -0.257776,-0.952 h -0.257766 v -0.476 h -0.257775 v -0.476 h -0.257775 v -0.47601 h -0.257775 v -0.71399 l -0.51555,-0.23801 v -0.47599 h -0.257775 q -0.128892,-2.73702 -0.257775,-5.47402 h -0.257775 v -3.80801 h -0.257775 v -4.76002 h -0.257775 v -4.52201 c -0.366555,-1.18643 0.166269,-3.30201 -0.257766,-4.76001 H 53.08398 c -0.161367,-0.57858 0.168065,-0.56524 0.257775,-0.71399 V 142.9751 H 53.08398 v -6.18803 c -0.704497,-2.36429 -0.257776,-8.09034 -0.257776,-11.66202 Q 52.955087,114.17702 53.08398,103.229 Z m 104.91419,101.62627 q -0.25778,-0.71399 -0.51555,-1.428 h -0.25778 v -0.476 h -0.25777 v -0.714 h -0.25778 v -0.476 h -0.25777 q -0.12889,-0.47602 -0.25778,-0.95201 c -0.77771,-1.34447 -1.65543,-2.5278 -2.06219,-4.28402 l -0.77332,-0.23799 q -0.1289,-0.35701 -0.25778,-0.714 h -0.25777 v -0.476 l -0.51555,-0.23801 v -0.476 l -0.51555,-0.23801 v -0.476 l -0.77333,-0.47599 v -0.476 l -0.51555,-0.23801 v -0.476 l -0.51555,-0.23801 v -0.47599 l -0.51555,-0.238 v -0.47601 l -0.51555,-0.23799 v -0.476 h -0.25777 v -0.714 l -0.51555,-0.23801 v -0.476 l -2.06219,-1.666 v -0.476 l -1.54665,-1.19001 v -0.47599 l -1.03109,-0.71401 q -0.1289,-0.357 -0.25777,-0.714 l -0.51555,-0.238 v -0.238 l -0.51555,-0.238 v -0.47601 h -0.25778 c -0.37172,-0.41602 -0.58643,-0.575 -0.77332,-1.19 -1.11152,-0.27084 -0.88753,-0.75279 -1.54665,-1.19 l -0.77333,-0.238 q -0.12888,-0.238 -0.25777,-0.476 h -0.51555 l -0.77333,-0.952 h -0.51555 q -0.12887,-0.23801 -0.25776,-0.476 h -0.51555 l -0.51555,-0.71401 h -0.51555 q -0.12889,-0.238 -0.25777,-0.47599 h -0.51555 l -0.51555,-0.71401 -1.03109,-0.23801 q -0.1289,-0.23799 -0.25778,-0.476 h -0.51555 v -0.238 h -0.51555 v -0.238 h -0.77332 v -0.238 h -0.77333 v -0.23799 h -0.77332 v -0.23801 h -0.77333 v -0.238 h -0.77332 v -0.238 l -3.09329,-0.23801 v -0.23799 c -1.68559,-0.4422 -4.0664,0.1666 -5.15549,0.476 h -1.28886 v 0.238 h -0.51555 l -0.77333,0.952 h -0.51555 q -0.12888,0.238 -0.25777,0.476 h -0.51555 v 0.23801 h -0.51555 v 0.23799 h -0.51555 v 0.23801 h -0.51555 q -0.12889,0.35699 -0.25778,0.71401 l -0.77332,0.47599 v 0.476 l -0.51554,0.23801 v 0.23799 l -0.51556,0.23801 v 0.476 l -1.28886,0.952 v 0.47601 h -0.25778 l -0.51555,0.71399 -0.51555,0.238 q -0.51555,1.42801 -1.0311,2.85601 h -0.25776 q -0.1289,0.476 -0.25778,0.95201 h -0.25777 v 0.71399 h -0.25778 q -0.1289,0.47601 -0.25777,0.95201 h -0.25778 v 0.71399 h -0.25777 l -0.77334,4.76001 h -0.25777 v 0.95202 h -0.25778 v 0.95199 h -0.25776 v 3.09402 h -0.25777 v 3.332 h -0.25779 v 0.71401 h -0.25777 c -0.4279,1.26141 0.24979,5.09703 0.51556,5.95001 v 1.66601 h 0.25777 c 0.23019,0.7497 -0.29413,1.76429 -0.25777,2.142 h 0.25777 v 1.42801 h 0.25776 v 1.19 h 0.25778 v 0.95201 h 0.25777 v 1.19 h 0.25779 q 0.12887,0.952 0.25777,1.904 h 0.25778 v 0.71401 h 0.25777 v 0.714 h 0.25778 v 0.952 h 0.25777 v 0.714 h 0.25778 v 0.71401 h 0.25777 v 0.714 h 0.25778 v 0.714 h 0.25776 v 0.714 h 0.25778 q 0.12888,0.714 0.25777,1.42801 1.41776,1.19 2.83551,2.38 v 0.476 l 1.0311,0.714 v 0.476 c 0.17194,0.0785 0.34362,0.15946 0.51555,0.23801 v 0.71399 h 0.25778 c 0.34361,0.39747 0.68748,0.79255 1.0311,1.19002 h 0.51555 c 0.34361,0.39745 0.68748,0.79253 1.0311,1.18999 h 0.51555 c 0.34361,0.39747 0.68748,0.79255 1.0311,1.19 h 0.51555 l 0.51554,0.714 h 0.51555 v 0.23801 h 0.51556 v 0.238 h 0.77331 v 0.238 h 0.77333 v 0.23801 h 0.77332 v 0.23799 q 1.9333,0.23919 3.8666,0.476 c 0.25778,0.31655 0.51555,0.63546 0.77333,0.95201 q 1.67554,0.1178 3.35107,0.23801 c 2.30013,0.59024 6.00795,0.23799 8.76433,0.23799 2.74736,0 6.47607,0.36652 8.76434,-0.23799 h 2.06218 v -0.23801 c 0.77333,-0.15946 1.54665,-0.31655 2.31998,-0.476 v -0.238 c 0.51555,-0.15946 1.0311,-0.31655 1.54665,-0.476 v -0.23801 h 0.51555 v -0.23799 h 0.51555 v -0.23801 h 0.77331 v -0.238 h 0.51555 v -0.238 h 0.77333 v -0.23801 c 0.51555,-0.15945 1.0311,-0.31653 1.54665,-0.47599 v -0.23801 h 0.51553 c 0.34362,-0.39745 0.68749,-0.79253 1.0311,-1.19 0.17194,-0.0785 0.34362,-0.15945 0.51555,-0.238 v -0.47599 l 2.06219,-1.42802 q 0.25778,-1.309 0.51555,-2.61801 h 0.25778 v -0.71398 h 0.25778 v -0.47601 h 0.25778 v -0.47601 c 0.17192,-0.0785 0.34361,-0.15946 0.51555,-0.23799 v -0.23801 h -0.25778 q -0.25777,-2.737 -0.51555,-5.47401 h -0.25778 v -1.19 h -0.25778 q -0.12887,-1.071 -0.25777,-2.14201 h -0.25778 v -0.952 h -0.25776 v -0.952 H 161.607 v -0.95201 h -0.25777 q -0.12889,-0.95199 -0.25778,-1.904 l -2.31997,-6.42602 z"
     style="fill:#9a54c8;fill-rule:evenodd;stroke-width:0.24769" />
  <path
     id="Color_Fill_2"
     data-name="Color Fill 2"
     class="cls-2"
     d="M 64.168271,231.74934 H 63.65273 c -0.190243,-0.76635 -0.349806,-0.86631 -1.288876,-0.95199 -0.07731,0.34271 -1.369295,2.30146 -1.54665,2.37999 h -1.288876 a 16.293404,15.043546 0 0 0 -1.03109,-1.428 h -0.51555 v -0.238 c -0.429448,-0.31654 -0.85942,-0.63546 -1.288875,-0.952 v -0.476 c -0.257776,-0.15946 -0.515542,-0.31655 -0.773317,-0.47601 v -0.476 c -0.171943,-0.0785 -0.343616,-0.15946 -0.51555,-0.23799 l -0.257775,-0.71401 h -0.257775 v -0.47599 c -0.171934,-0.0785 -0.343615,-0.15947 -0.51555,-0.23801 v -0.476 c -0.171934,-0.0785 -0.343606,-0.15946 -0.51555,-0.23801 v -0.47599 c -0.171935,-0.0785 -0.343615,-0.15946 -0.515541,-0.238 v -0.47601 c -0.171944,-0.0785 -0.343624,-0.15946 -0.515551,-0.23799 l -0.257775,-0.95201 -0.515558,-0.23799 v -0.47602 h -0.257766 l -0.257775,-0.71399 -0.51555,-0.238 -0.257775,-0.71401 h -0.773326 c -0.478688,0.78541 -1.21566,1.18287 -2.577741,1.19001 l -1.288876,-1.428 -0.515541,-0.238 v -0.476 l -0.515549,-0.23801 -0.257784,-0.95199 h -0.257775 l -0.257766,-0.71401 -0.51555,-0.238 -0.257776,-0.952 -0.51555,-0.238 -0.51555,-1.42801 -0.51555,-0.238 -0.515541,-1.428 -0.51555,-0.238 v -0.71401 l -0.51555,-0.238 v -0.476 h -0.257776 v -0.47599 h -0.257775 v -0.47601 h -0.257775 v -0.476 h -0.257775 v -0.47601 h -0.257775 v -0.476 H 38.90638 v -0.476 h -0.257766 v -0.476 h -0.257775 v -0.476 h -0.257775 l -0.51555,-1.42801 h -0.257785 q -0.128883,-0.59499 -0.257765,-1.18999 h -0.257776 l -0.257775,-0.95201 h -0.257775 v -0.714 h -0.257775 l -0.257775,-0.952 h -0.257775 q -0.128883,-0.71401 -0.257775,-1.42801 h -0.257775 l -0.257775,-0.952 h -0.257775 q -0.128883,-0.714 -0.257775,-1.42801 h -0.257766 v -0.476 h -0.257776 v -0.95199 h -0.257775 v -0.476 h -0.257775 v -0.714 h -0.257775 v -0.71401 h -0.257775 v -0.71401 h -0.257775 q -0.128891,-0.83299 -0.257774,-1.666 h -0.257775 v -0.476 h -0.257775 v -0.95201 c -0.441566,-1.19001 -0.873078,-2.8034 -1.288867,-4.04601 v -1.19 h -0.257775 q -0.128892,-1.547 -0.257784,-3.094 h -0.257766 v -2.14201 H 29.36873 v -2.38001 h -0.257775 v -7.85401 h 0.257775 v -2.85603 h 0.257775 v -1.42799 h 0.257766 v -1.19 h 0.257784 q 0.128883,-0.71401 0.257775,-1.42801 h 0.257776 l 0.257775,-0.952 h 0.257775 v -0.714 h 0.257766 v -0.476 h 0.257775 v -0.47602 l 0.51555,-0.23798 v -0.47601 l 0.515549,-0.238 v -0.476 l 0.51555,-0.238 v -0.476 l 0.773326,-0.476 c 1.10378,-1.03792 1.290416,-1.40969 2.835516,-2.14201 v -0.238 l 1.804426,-0.23801 v -0.23799 l 4.639932,0.23799 v 0.23801 h 0.515551 v 0.238 l 2.319965,0.714 0.257775,0.47601 h 0.515551 l 1.0311,1.19 h 0.51555 l 0.257775,0.476 1.288866,0.952 v 0.476 l 2.062192,1.66601 v 0.476 l 1.288884,0.952 v 0.476 h 0.257766 v 0.47599 l 0.51555,0.23801 0.51555,1.42801 0.51555,0.23799 0.51555,1.42801 h 0.257775 l 0.257775,0.71401 0.515542,0.23799 v 0.476 l 0.773325,0.47601 v 0.476 l 0.51555,0.23801 v 0.47599 h 0.257775 v 0.476 h 0.257775 v 0.476 h 0.257775 v 0.476 l 0.51554,0.238 0.51555,1.42801 0.51556,0.238 v 0.714 h 0.257775 v 0.476 h 0.257766 v 0.476 h 0.257775 v 0.47601 h 0.257775 v 0.476 h 0.257775 v 0.476 h 0.257775 v 0.476 h 0.257775 l 0.51555,1.42801 0.515551,0.23799 0.257775,0.714 h 0.257775 v 0.47601 h 0.257766 v 0.476 h 0.257775 v 0.714 h 0.257775 v 0.476 h 0.257775 l 0.51555,1.428 h 0.257775 q 0.257774,1.07101 0.515549,2.14201 h 0.257776 l 0.257775,0.952 h 0.257766 v 0.47601 h 0.257775 v 0.714 h 0.257775 v 0.476 h 0.257784 q 0.128883,0.714 0.257775,1.42799 h 0.257775 q 0.128883,0.71401 0.257766,1.42802 h 0.257775 v 0.47599 h 0.257775 v 0.71401 h 0.257775 v 0.476 h 0.257776 v 0.71401 h 0.257775 v 0.47599 h 0.257775 q 0.128883,0.59501 0.257775,1.19001 h 0.257775 v 0.714 h 0.257775 v 0.952 h 0.257775 v 0.714 h 0.257766 v 0.95201 c 1.443535,3.71899 2.542439,8.05608 3.866625,11.90004 q 0.257775,1.78499 0.515551,3.57 h 0.257765 v 1.42801 h 0.257776 v 1.666 h 0.257775 v 2.14201 h 0.257775 v 3.57001 c 0.133016,0.73542 0.586698,2.48472 0.257775,3.57001 h -0.257775 q -0.128883,2.023 -0.257775,4.04601 h -0.257775 v 0.71399 c -0.171935,0.0785 -0.343616,0.15946 -0.515541,0.23801 v 1.19 h -0.257776 v 0.476 h -0.257775 v 0.476 c -0.482305,0.83777 -1.497163,2.10631 -2.577751,2.38001 v 0.238 h -1.288874 c -0.275041,-0.29988 -0.45574,-0.2499 -0.773316,-0.47599 v -0.23801 h -0.51555 q -1.933309,-1.90281 -3.866618,-3.808 c -0.670218,-0.61882 -1.516232,-0.91393 -1.804424,-1.90402 z M 220.37956,221.51532 q -0.64572,3.451 -1.28887,6.90202 a 37.870669,34.96563 0 0 0 -1.28887,4.04601 3.4613947,3.195873 0 0 0 -1.0311,0.71399 c -0.51813,-0.13565 -0.22425,0.0286 -0.51555,-0.23799 -1.71162,-0.41651 -2.0957,-2.14676 -3.86661,-2.38001 l -0.77332,2.142 c -0.17271,0.0785 -0.34284,0.15947 -0.51555,0.23801 -0.0851,0.31654 -0.17271,0.63546 -0.25777,0.95199 h -0.25778 v 0.71401 c -0.69084,1.42801 -1.5518,3.40104 -3.60885,3.57001 -0.48461,-0.69258 -1.33011,-0.72114 -2.0622,-1.19 -0.1727,-0.23799 -0.34283,-0.476 -0.51553,-0.71401 h -0.51555 q -1.54665,-1.54581 -3.09329,-3.09401 v -0.476 c -0.17272,-0.0785 -0.34285,-0.15946 -0.51555,-0.23799 v -0.47601 c -0.17272,-0.0785 -0.34285,-0.15945 -0.51555,-0.238 v -0.47599 c -0.17194,-0.0785 -0.34362,-0.15947 -0.51555,-0.23801 q -0.25778,-0.71401 -0.51555,-1.42801 c -0.17194,-0.0785 -0.34362,-0.15945 -0.51555,-0.23799 -0.0859,-0.31654 -0.17194,-0.63547 -0.25778,-0.952 -0.17193,-0.0785 -0.34361,-0.15947 -0.51555,-0.23801 q -0.25777,-0.714 -0.51555,-1.42801 h -0.25777 v -0.47599 h -0.25778 v -0.476 h -0.25777 q -0.25778,-0.71401 -0.51555,-1.42801 h -0.25778 q -0.25777,-1.071 -0.51555,-2.142 h -0.25777 v -0.476 h -0.25778 q -1.9333,-6.42602 -3.86661,-12.85203 -0.12889,-1.19002 -0.25776,-2.38001 c -0.80865,-2.36906 -1.00997,-5.43141 -1.80443,-7.85402 v -1.66601 h -0.25777 v -1.66601 h -0.25778 v -2.85601 h -0.25777 q -0.12889,-1.666 -0.25778,-3.332 v -2.61801 c -0.29566,-0.96367 -0.59571,-3.4234 -0.25777,-4.76001 h 0.25777 q -0.12888,-0.35701 -0.25777,-0.714 h 0.25777 v -5.47402 h 0.25778 v -3.09402 h 0.25777 v -1.19 h 0.25778 v -1.19 h 0.25777 v -2.142 h 0.25778 q 0.12887,-1.071 0.25777,-2.14201 h 0.25778 v -0.71401 h 0.25777 v -0.95199 h 0.25778 v -0.476 h 0.25777 v -1.19 h 0.25778 v -0.47601 l 0.77331,-0.476 v -0.476 h 0.25778 v -0.476 h 0.25777 v -0.476 h 0.25778 v -0.47601 h 0.25777 v -0.47599 l 2.06219,-1.42801 h 0.77332 v -0.23801 h 0.51555 v -0.23799 c 0.8174,-0.27181 3.81507,0.0493 4.38218,0.23799 v 0.23801 l 1.54665,0.238 v 0.238 h 0.51554 v 0.238 h 0.77332 v 0.238 h 0.51555 v 0.23801 h 0.51555 v 0.238 h 0.51555 v 0.238 h 0.51555 c 0.0851,0.15874 0.17271,0.31724 0.25776,0.47599 h 0.51555 c 0.34285,0.39675 0.68827,0.79326 1.0311,1.19001 h 0.51555 q 0.90092,0.952 1.80443,1.904 1.41904,1.19001 2.83552,2.38001 v 0.476 l 0.77332,0.47599 v 0.47602 c 0.17271,0.0792 0.34284,0.15874 0.51555,0.23799 v 0.476 l 0.77332,0.47601 v 0.476 c 0.17272,0.0792 0.34285,0.15875 0.51555,0.23799 v 0.47601 c 0.17271,0.0792 0.34284,0.15875 0.51555,0.23799 0.17271,0.47601 0.34284,0.95202 0.51555,1.42801 h 0.25778 c 0.0851,0.238 0.1727,0.476 0.25777,0.71401 0.17271,0.0792 0.34283,0.15875 0.51554,0.23799 v 0.47602 h 0.25777 v 0.47599 h 0.25778 v 0.476 h 0.25777 v 0.476 h 0.25778 v 0.476 c 0.17272,0.0793 0.34284,0.15875 0.51555,0.238 l 0.77332,2.14201 h 0.25778 v 0.476 h 0.25777 c 0.17271,0.47601 0.34284,0.95201 0.51555,1.42801 h 0.25777 c 0.0851,0.476 0.17271,0.952 0.25777,1.42801 h 0.25778 v 0.47599 h 0.25777 v 0.71401 h 0.25779 v 0.714 h 0.25777 v 0.714 h 0.25778 v 0.95199 h 0.25777 v 0.71401 h 0.25778 v 0.952 h 0.25777 v 0.71401 h 0.25778 v 0.952 h 0.25777 v 0.952 h 0.25778 v 0.952 h 0.25776 v 0.95201 h 0.25778 c 0.0851,0.63451 0.17271,1.26949 0.25777,1.904 h 0.25778 q 0.25905,1.66601 0.51555,3.33201 h 0.25777 v 1.19 c 0.38409,1.13765 0.65217,2.876 1.0311,4.04601 q 0.1276,2.26102 0.25778,4.52202 h 0.25777 c 0.17271,0.57859 -0.28355,0.99626 -0.25777,1.19 h 0.25777 c 0.31964,1.4223 0.0747,6.09639 -0.25777,7.14002 v 3.57002 h -0.25778 v 1.428 h -0.25777 q -0.1276,1.547 -0.25778,3.09401 h -0.25777 v 0.476 c -0.17271,0.0792 -0.34284,0.15874 -0.51555,0.238 v 0.476 h -0.25778 c -0.49235,0.89155 0.41245,0.76327 -1.0311,0.952 v -0.238 c -0.43048,-0.0792 -0.85838,-0.15874 -1.28886,-0.238 v -0.238 c -0.53102,-0.39413 -0.78107,-0.76159 -1.54666,-0.952 z M 142.78948,183.4352 h 0.51555 v 0.47601 l 2.06219,1.666 v 0.47601 l 1.28887,0.95199 v 0.47601 l 1.03109,0.71401 v 0.47599 l 0.77332,0.47601 v 0.476 l 0.51555,0.238 v 0.476 l 0.77333,0.476 q 0.12889,0.476 0.25777,0.95199 l 0.77333,0.47601 v 0.47601 l 0.51555,0.23799 v 0.47601 l 0.51555,0.23799 v 0.476 h 0.25777 q 0.12889,0.35702 0.25778,0.71401 l 0.51555,0.23801 v 0.476 l 1.0311,0.714 1.80441,4.04601 h 0.25778 q 0.12888,0.476 0.25777,0.95199 h 0.25778 v 0.47602 h 0.25777 v 0.476 h 0.25778 l 1.0311,2.618 c 0.71196,0.17207 0.57664,0.0665 0.77331,0.714 h 0.25777 q 0.1289,0.595 0.25778,1.19 h 0.25777 v 0.952 h 0.25778 v 0.71401 h 0.25777 v 0.714 h 0.25778 v 0.714 h 0.25777 q 0.12889,0.833 0.25778,1.66601 h 0.25777 q 0.12889,0.95201 0.25778,1.904 h 0.25777 q 0.12889,0.95201 0.25778,1.90401 h 0.25776 v 0.952 h 0.25778 v 0.952 h 0.25777 v 1.19001 h 0.25778 v 1.19 h 0.25778 v 1.19 h 0.25778 v 3.09401 h -0.25778 v 1.90401 h -0.25778 v 1.19 h -0.25778 v 0.952 h -0.25777 v 0.714 c -0.17193,0.0785 -0.34361,0.15946 -0.51554,0.23801 v 0.476 c -0.25778,0.15946 -0.51555,0.31654 -0.77333,0.47599 v 0.476 h -0.25777 q -0.12889,0.35701 -0.25778,0.71401 c -0.17193,0.0785 -0.34361,0.15946 -0.51555,0.23801 v 0.47599 c -0.25777,0.15946 -0.51555,0.31655 -0.77332,0.476 v 0.23801 h -0.51555 c -0.25778,0.31654 -0.51554,0.63546 -0.77331,0.952 h -0.51555 v 0.23801 c -0.51555,0.15944 -1.0311,0.31653 -1.54665,0.47599 v 0.238 h -0.77333 v 0.238 c -0.3436,0.0785 -0.68748,0.15947 -1.03109,0.23801 v 0.23799 l -2.31997,0.71401 v 0.238 h -0.51555 v 0.23799 h -1.80443 v 0.23801 h -1.28887 v 0.23801 h -1.28886 v 0.23799 H 131.4474 v -0.23799 h -1.0311 v -0.23801 h -1.0311 v -0.23801 q -1.54665,-0.1178 -3.0933,-0.23799 v -0.238 h -0.77331 v -0.23801 h -0.77333 v -0.23799 h -0.77332 v -0.23801 h -0.77333 v -0.23799 h -0.51553 v -0.23801 h -0.77333 v -0.238 c -0.51555,-0.15945 -1.0311,-0.31654 -1.54665,-0.47601 v -0.23798 c -0.34361,-0.0785 -0.68748,-0.15947 -1.0311,-0.23801 -0.0859,-0.15946 -0.17193,-0.31654 -0.25777,-0.476 -0.34361,-0.0785 -0.68748,-0.15946 -1.03109,-0.23801 -0.0859,-0.15946 -0.17195,-0.31653 -0.25778,-0.476 h -0.51555 l -0.51555,-0.714 h -0.51555 q -2.19108,-1.90401 -4.38217,-3.808 v -0.47602 c -0.25778,-0.15945 -0.51555,-0.31653 -0.77333,-0.476 v -0.47599 c -0.17192,-0.0785 -0.3436,-0.15946 -0.51553,-0.238 v -0.47601 c -0.17195,-0.0785 -0.34362,-0.15946 -0.51555,-0.23799 v -0.476 l -0.51555,-0.238 q -0.25778,-0.71401 -0.51555,-1.42801 l -0.51555,-0.238 v -0.476 h -0.25778 v -0.47601 h -0.25776 v -0.71399 h -0.25778 v -0.47601 h -0.25777 v -0.95199 h -0.25778 v -0.71401 h -0.25777 v -0.952 h -0.25778 v -0.95201 h -0.25777 v -0.952 h -0.25778 q -0.1289,-1.071 -0.25777,-2.142 h -0.25779 v -0.95201 h -0.25777 v -0.952 h -0.25778 v -0.95201 h -0.25776 v -1.19 h -0.25777 q 0.12888,-2.38001 0.25777,-4.76 h -0.25777 q 0.12888,-2.49901 0.25777,-4.99802 h -0.25777 c -0.65295,-2.17628 0.79523,-6.42246 1.28887,-7.85403 l 0.77332,-4.52201 2.57774,-5.71201 0.51555,-0.23801 q 0.25778,-0.714 0.51555,-1.428 l 0.77331,-0.476 v -0.476 l 0.51555,-0.238 v -0.476 l 0.77334,-0.476 v -0.476 l 1.54664,-1.19001 v -0.47599 l 0.51555,-0.23801 v -0.238 h 0.51555 l 0.51555,-0.714 3.60884,-1.66601 h 1.0311 c 0.86097,-0.25299 4.51106,-0.89846 5.9288,-0.47601 v 0.23801 h 0.77332 v 0.238 h 0.77333 v 0.238 h 0.77332 v 0.23801 h 0.51555 v 0.23799 h 0.77333 v 0.238 h 0.51555 v 0.238 h 0.77332 q 0.12889,0.238 0.25778,0.47601 h 0.51555 v 0.23799 h 0.51555 v 0.23801 h 0.51555 v 0.238 h 0.51554 v 0.238 h 0.51555 v 0.23801 h 0.51555 v 0.23799 l 0.77332,0.238 q 0.12889,0.238 0.25778,0.476 h 0.51554 q 0.12889,0.23801 0.25778,0.476 l 0.77331,0.23801 1.0311,1.19 h 0.51555 l 2.31998,2.38001 h 0.51555 l 1.28887,1.428 h 0.25778 z M 119.332,213.89929 v 0.47601 l 2.31998,1.428 v 0.71401 c -1.1801,0.24228 -2.24265,0.88393 -3.35107,1.19 h -2.31997 v 0.238 h -1.0311 v -0.238 l -2.31998,-0.238 v -0.23801 h -0.51553 v -0.238 h -0.77334 v -0.23799 a 9.9366883,9.1744492 0 0 0 -2.06219,-0.71401 v 0.71401 h 0.25778 c 2.03642,2.35096 12.3474,3.29773 13.40426,-0.47601 l 4.38216,0.23801 v 0.238 h 0.51555 q 0.12889,0.23799 0.25778,0.47599 h 0.51555 q 0.12889,0.23801 0.25777,0.47601 h 0.51555 v 0.238 h 0.77333 v 0.238 c 1.26875,0.48004 1.71471,-0.28037 1.80442,1.428 h -0.25777 v 0.23801 c -1.22108,0.0659 -1.93048,0.46505 -2.83553,0.71399 l -4.38216,0.238 v -0.238 h -1.80441 v -0.238 l -1.0311,-0.23799 v -0.238 h -1.54665 v -0.23801 h -0.25778 v 0.714 a 2.0482754,1.8911533 0 0 1 1.0311,0.476 v 0.23801 l 1.0311,0.238 v 0.238 l 4.63993,0.714 v 0.714 c -1.75827,0.0952 -4.91884,1.26569 -6.95989,0.71399 v -0.23799 h -1.28888 v -0.238 h -0.77332 v -0.238 h -0.77333 v -0.238 a 10.0233,9.2544178 0 0 0 -2.0622,-0.71401 v 0.71401 c 1.17957,0.28394 2.13953,1.28807 3.35108,1.666 h 1.28886 c 2.55198,0.70306 5.62516,-0.0928 7.73323,-0.476 0.31474,-1.19833 1.66651,-2.22341 2.83552,-2.618 l 1.80443,-0.238 1.0311,-2.14201 h 4.63992 l 1.80443,2.14201 4.63995,0.95199 v -0.23799 c -0.4921,-0.29893 -0.42766,-0.24134 -0.51555,-0.95201 h 0.77331 v -0.238 c -1.24633,0.0364 -2.98812,0.11258 -3.86661,-0.238 v -0.23799 h -0.51555 v -0.238 l -1.54665,-0.23801 v -0.238 h -0.25778 v -0.714 c 1.16954,-0.39412 2.51073,-0.70663 2.83553,-1.904 0.71377,-0.11113 4.51105,-0.87346 5.41326,-0.47601 l 1.54664,1.66601 h 0.77332 c 2.61282,1.00769 5.73885,1.21784 8.50657,0.238 1.2783,-0.4522 2.20705,-0.39461 2.57773,-1.666 -0.29359,-0.27109 -0.10304,0 -0.25777,-0.47601 l -1.03109,0.238 q -0.12889,0.23801 -0.25777,0.47601 h -0.77333 v 0.23799 h -0.51555 v 0.238 h -0.77332 v 0.23801 c -0.89913,0.26417 -6.86582,-0.0277 -7.47547,-0.23801 -0.59288,-0.20444 -0.98597,-0.75588 -1.80441,-0.952 v -0.952 h 0.25778 c 0.47661,-0.63071 0.8741,-0.6814 1.03108,-1.66601 -1.30535,0.26989 -2.38749,1.07267 -3.60883,1.42801 h -3.09329 c -1.14813,0.0112 -2.44036,0.34891 -3.60885,0 v -0.23801 h -0.77333 v -0.23799 h -0.77331 v -0.238 h -0.51555 q -0.12889,-0.238 -0.25777,-0.47601 l -0.77333,-0.238 v 0.71401 l 4.12439,2.14201 v 0.47599 c -1.2533,0.2142 -4.72114,0.93082 -6.44435,0.47601 a 10.764659,9.9389082 0 0 0 -2.83553,-0.47601 v -0.714 h 0.25778 v -0.238 h 0.77332 v -0.238 c 1.0177,-0.50813 1.9975,-0.75922 2.31998,-1.90401 h 0.25777 v -0.238 h -0.25777 v -0.238 c -1.22702,0.29632 -2.11789,1.30235 -3.35108,1.66601 l -7.73322,-0.23801 v -0.23799 c -0.85453,-0.37272 -1.11384,-0.64475 -2.31998,-0.71401 z m 27.83964,6.90202 v 0.95201 l -1.54665,0.476 v 0.476 l 2.31996,1.42801 h 1.0311 v 0.23799 h 1.0311 v 0.23801 h 4.89773 v -0.23801 h 1.54664 v -0.23799 l 1.28887,-0.23801 c 0.44027,-0.699 0.74522,-0.6814 0.77331,-1.90401 h -0.77331 q -0.12889,0.35701 -0.25777,0.71401 a 21.555868,19.902329 0 0 0 -4.38217,0.714 h -4.63995 c -0.55911,-0.75469 -1.22442,-0.41555 -1.54663,-1.42801 l 3.60883,-1.19 q 0.12889,-0.595 0.25778,-1.19 c -1.14865,0.0778 -1.94878,0.67283 -2.83553,0.952 h -1.54663 v 0.238 z m -17.27089,3.80802 q 0.12889,0.35699 0.25778,0.714 h 0.51555 l 0.51555,0.714 c 1.0909,0.66403 2.55531,0.97343 4.38216,0.952 v 1.19 c -1.16256,0.11901 -1.9261,0.65689 -2.83551,0.952 -1.19969,0.39032 -3.08479,0.48552 -4.63995,0.476 h -1.54665 v -0.23799 h -0.51555 v -0.23801 c -0.42971,-0.0785 -0.85916,-0.15946 -1.28887,-0.23799 v -0.23801 c -0.77332,-0.15946 -1.54665,-0.31654 -2.31996,-0.476 v 0.476 q 1.41775,0.83301 2.83551,1.666 h 1.54664 c 1.98745,0.52361 6.36832,0.37129 7.73324,-0.476 0.25778,-0.31653 0.51555,-0.63545 0.77333,-0.95199 0.17193,-0.0785 0.34361,-0.15947 0.51554,-0.23801 q 0.12889,-0.714 0.25778,-1.42801 c 1.41002,0.0262 3.61399,-0.0928 4.63994,-0.476 v -0.23798 a 10.041859,9.2715539 0 0 1 2.0622,-0.71401 q 0.12887,-0.71401 0.25777,-1.42801 a 9.9714876,9.2065799 0 0 0 -2.0622,0.714 v 0.23801 h -0.77332 v 0.23799 h -0.77333 v 0.23801 h -1.28887 v 0.238 c -1.57809,0.41888 -3.67276,-0.19755 -4.63994,-0.47601 h -1.28886 v -0.23799 z m 21.91083,3.09401 c -0.95377,1.03053 -5.16581,2.12772 -6.95991,1.666 h -1.80442 v -0.23801 h -1.28887 c -1.03935,-0.32606 -1.67863,-0.86394 -3.0933,-0.952 v 0.23801 h 0.25777 v 0.23799 c 0.25778,0.15946 0.51555,0.31654 0.77333,0.476 v 0.23801 c 0.51555,0.15946 1.0311,0.31654 1.54665,0.47599 v 0.23801 c 0.66763,0.26418 4.81547,0.77588 5.92881,0.476 v -0.23801 h 2.06219 v -0.23799 h 0.77332 v -0.23801 h 0.51555 v -0.238 h 0.51555 c 0.0859,-0.15945 0.17194,-0.31653 0.25778,-0.476 0.44337,-0.39746 1.16437,-0.70686 0.51555,-1.42799 z m -6.44436,5.23601 c -1.49793,0.2975 -2.63677,1.2495 -4.12439,1.666 -1.36621,0.38318 -5.8141,-0.18326 -6.70214,-0.476 v -0.23801 h -0.77332 v -0.23798 h -0.51555 v -0.23801 c -0.25777,-0.0785 -0.51554,-0.15946 -0.77332,-0.23801 v 0.23801 h -0.25777 c 0.21756,0.26894 -0.0327,0.0357 0.25777,0.23801 1.08265,1.78024 3.66916,2.14675 6.70213,2.142 h 2.0622 q 1.54665,-0.47482 3.09329,-0.952 c 0.3761,-0.64738 0.8272,-1.04721 1.0311,-1.90401 z"
     style="fill:#89fcfe;fill-rule:evenodd;stroke-width:0.24769" />
  <path
     id="Color_Fill_3"
     data-name="Color Fill 3"
     class="cls-1"
     d="m 129.3852,216.2793 q 0.12889,0.357 0.25778,0.714 a 10.771103,9.944858 0 0 1 2.83552,0.47601 c 1.95909,0.51217 4.64509,-0.34177 6.18658,-0.47601 v -0.47599 l -0.77333,-0.23801 v -0.238 h -0.51555 v -0.238 h -0.51555 q -0.12887,-0.238 -0.25776,-0.476 h -0.51555 v -0.238 h -0.51555 v -0.23801 h -0.51555 v -0.23799 a 0.68361774,0.63117773 0 0 1 -0.25777,-0.238 h -0.25778 v -0.71401 h 0.25778 c 1.3595,1.47871 4.22465,1.43301 7.21768,1.42801 h 2.06219 v -0.23801 l 1.80443,-0.23799 v -0.238 h 0.51555 v -0.238 h 0.51555 v -0.23801 c 0.35649,-0.21658 0.45188,-0.16255 1.03108,-0.238 -0.15104,1.42325 -0.94628,1.26593 -1.28886,2.38001 0.54854,0.28846 0.56117,0.53598 1.28886,0.71401 0.7424,0.69686 1.42936,0.1823 2.57775,0.47599 v 0.23801 c 1.16335,0.29845 5.38569,0.0602 6.18659,-0.23801 v -0.238 h 0.51555 c 0.69341,-0.32701 1.11539,-0.74922 2.06219,-0.952 0.15312,0.88417 0.14951,0.54478 0,1.42801 l -1.54664,0.476 v 0.238 h -0.77332 v 0.238 h -0.77333 v 0.238 h -1.28886 v 0.238 c -1.48789,0.39484 -6.44798,-0.56169 -7.2177,-0.952 v -0.238 a 2.2756324,2.1010699 0 0 0 -1.03109,-0.47601 v -0.47599 a 19.070924,17.608003 0 0 0 -5.92881,0 c -0.48977,1.77643 -4.41258,2.50709 -6.70214,1.904 h -2.31996 v -0.238 h -0.77333 v -0.238 h -1.0311 v -0.238 l -1.0311,-0.238 v -0.238 h -0.51555 l -0.51555,-0.714 -4.63994,-0.47601 -1.03108,1.42801 h -0.51555 q -0.12889,0.238 -0.25778,0.476 h -0.77332 v 0.238 h -1.03109 v 0.238 h -2.57775 c -2.08308,0.51527 -6.61424,-0.67426 -7.47546,-1.904 h -0.25778 v -0.71401 l 2.83553,0.952 v 0.238 h 0.77331 v 0.23801 h 0.51555 v 0.238 h 1.80442 l 3.86662,-0.238 c 0.82101,-0.27038 1.55851,-0.76161 2.57775,-0.952 v -0.71401 h -0.25778 c -0.67744,-0.74589 -1.76525,-1.02863 -2.31997,-1.90401 h 1.28887 a 4.1952784,3.8734608 0 0 0 1.54665,0.952 l 7.21768,0.23801 v -0.23801 l 1.54665,-0.23799 q 0.12888,-0.238 0.25777,-0.476 h 0.51555 v -0.23801 h 0.51555 v -0.238 l 0.77333,-0.238 v 0.238 h 0.25777 a 5.057276,4.6693351 0 0 1 -3.60885,2.61801 z m -0.51555,0 v 0.47601 h 0.25778 c -0.14797,-0.47838 0.0309,-0.20589 -0.25778,-0.47601 z m 3.0933,2.61801 c 0.2936,0.27108 0.10305,0 0.25778,0.476 h -0.25778 z m -17.27089,3.80801 q 0.12889,-0.357 0.25778,-0.71401 l 0.77332,0.23801 v 0.238 h 0.51555 v 0.238 h 0.77333 v 0.238 h 0.51555 v 0.238 l 2.31996,0.238 v 0.23799 c 2.09338,0.55384 5.3666,-0.66995 6.9599,-0.95199 q 0.1289,-0.238 0.25778,-0.476 h -0.25778 c -0.84858,-0.65117 -2.90279,-0.1036 -4.12437,-0.476 -0.95893,-0.29227 -2.6105,-1.15359 -3.09329,-1.904 h 0.25776 v -0.23801 l 2.57775,0.47601 v 0.23799 h 0.51554 v 0.238 h 2.31997 a 0.68232885,0.62998776 0 0 0 0.77332,0.238 v -0.238 h 2.57775 v -0.238 l 2.83552,-0.47599 v -0.23801 c 0.52715,-0.0566 0.30289,0.10349 0.51555,0.23801 h 0.25778 v 0.71399 a 2.5285091,2.3345485 0 0 0 -0.51555,0.47601 h -0.77333 v 0.238 h -1.0311 v 0.238 h -0.51555 v 0.238 h -0.51555 q -0.12888,0.23799 -0.25777,0.476 h -0.51555 q -0.12889,0.35699 -0.25778,0.714 l -0.51555,0.238 q -0.12887,0.357 -0.25777,0.714 c -0.62768,0.42222 -6.44203,1.14407 -7.991,0.71401 l -2.83552,-0.95202 q -0.12888,-0.23799 -0.25777,-0.47599 h -0.51555 v -0.238 z m 36.08842,-3.09401 v 0.952 c -1.15638,0.54979 -2.63832,1.14454 -3.86661,1.66601 0.2936,0.27108 0,0.0952 0.51555,0.238 1.01536,1.51726 5.60556,0.99056 7.47546,0.476 1.05145,-0.28941 1.92815,0.10517 2.57774,-0.476 0.2936,-0.27108 0.10315,0 0.25777,-0.47601 h 0.77331 q 0.1289,0.35701 0.25778,0.71401 h -0.25778 q -0.12887,0.357 -0.25776,0.714 h -0.25777 q -0.12889,0.23799 -0.25778,0.476 h -0.51555 v 0.23801 h -0.51555 v 0.23799 c -0.59649,0.21088 -5.794,0.49148 -6.70214,0.23801 v -0.23801 h -1.28887 v -0.23799 h -0.77333 v -0.23801 l -1.03108,-0.23801 v -0.23799 h -0.51555 q -0.12889,-0.238 -0.25778,-0.476 h -0.51555 l -0.51555,-0.714 -1.28886,-0.23801 v -0.23799 h -1.80443 a 11.361664,10.490117 0 0 0 -2.0622,-0.476 v -0.47601 h -0.51555 v -0.71399 c 1.09787,0.10832 1.56031,0.49337 2.31998,0.71399 h 4.12439 v -0.238 l 2.57773,-0.238 c 0.85066,-0.28013 1.05844,-0.64117 2.31998,-0.714 z m -21.1375,4.76001 1.28887,0.23801 q 0.12889,0.238 0.25778,0.47599 h 0.51555 v 0.23801 h 0.77332 v 0.23799 c 0.94499,0.0785 1.89051,0.15947 2.83552,0.23801 0.43666,0.11424 1.75029,0.45934 2.57773,0.238 v -0.238 q 1.54665,-0.23801 3.0933,-0.476 v -0.23801 h 0.51555 v -0.23799 h 0.51555 v -0.238 c 0.35547,-0.21563 0.45085,-0.16661 1.0311,-0.23801 v 1.19 c -1.97533,1.03056 -5.03795,2.29909 -8.24878,1.42801 -1.05069,-0.2856 -1.98229,0.009 -2.83552,-0.47599 -0.0859,-0.15947 -0.17193,-0.31655 -0.25777,-0.47601 h -0.51555 l -0.51555,-0.714 h -0.51555 v -0.23801 c -0.3815,-0.32581 -0.34285,-0.119 -0.51555,-0.714 z m 22.1686,3.33202 h 0.25777 v 0.95199 c -0.92283,0.51885 -1.37394,1.30901 -2.57775,1.666 h -2.06218 v 0.23801 h -3.86662 v -0.23801 h -1.54665 c -1.34275,-0.39269 -2.70096,-1.09717 -3.35107,-2.142 h 0.25777 v -0.238 c 2.55197,1.10432 6.57015,2.18485 10.0532,0.95201 h 0.77333 v -0.23801 h 0.51555 v -0.23799 h 0.51555 v -0.23801 c 0.52793,-0.26656 0.62975,-0.0429 1.0311,-0.47599 z m -29.38628,0.47599 c 0.77331,0.15946 1.54664,0.31654 2.31996,0.476 v 0.23801 c 0.42971,0.0785 0.85916,0.15946 1.28887,0.23799 v 0.23801 h 0.51555 v 0.23799 a 0.64778705,0.59809566 0 0 0 0.77332,-0.23799 h 3.60885 v -0.23801 h 1.28888 v -0.23799 h 1.03109 v -0.23801 h 0.77332 v -0.23799 c 0.51555,-0.15947 1.0311,-0.31655 1.54665,-0.47601 v 0.238 h 0.25777 v 0.71401 l -1.03109,0.71399 v 0.238 h -0.51555 v 0.23801 h -0.51555 v 0.23799 h -0.77332 v 0.23801 h -2.0622 v 0.23801 c -0.78158,0.19753 -1.92893,-0.13329 -2.31997,-0.23801 h -1.80443 v -0.23801 h -1.54664 v -0.23799 c -0.51555,-0.15946 -1.0311,-0.31655 -1.54665,-0.47601 l -0.51555,-0.71399 c -0.25777,-0.0785 -0.51553,-0.15947 -0.77331,-0.23801 z m 9.79543,4.99801 c 0.51555,0.15946 1.03109,0.31655 1.54664,0.47602 v 0.23798 h 1.0311 c 1.03367,0.34035 3.58666,1.21143 5.41326,0.71401 q 1.9333,-0.59618 3.86661,-1.19 v -0.23801 c 0.25778,-0.0785 0.51555,-0.15945 0.77333,-0.23799 v -0.23801 h 0.25777 v 0.23801 c 0.17194,0.0785 0.34362,0.15946 0.51555,0.23799 -0.21756,0.26894 0.0327,0.0357 -0.25777,0.23801 -0.89191,3.60333 -12.20974,3.1892 -13.14649,-0.23801 z"
     style="fill:#9a54c8;fill-rule:evenodd;stroke-width:0.24769" />
  <path
     id="Color_Fill_4"
     data-name="Color Fill 4"
     class="cls-3"
     d="m 119.07423,257.69142 c -1.0476,-0.29037 -0.3333,-0.15233 -0.77332,-0.71401 -0.17194,-0.0785 -0.34361,-0.15945 -0.51555,-0.23799 v -0.47601 c -0.51555,-0.39746 -1.0311,-0.79254 -1.54665,-1.19001 v -0.47599 q -1.0311,-0.83181 -2.0622,-1.66601 v 0.952 c 0.60526,0.61881 0.53643,3.47005 0.51555,4.76001 -0.87642,-0.21419 -1.70929,-1.13288 -2.31996,-1.666 -0.0859,-0.15945 -0.17195,-0.31654 -0.25777,-0.47599 h -0.51557 l -0.51555,-0.71401 c -0.17192,-0.0785 -0.3436,-0.15946 -0.51553,-0.238 v -0.47601 c -0.25778,-0.15944 -0.51555,-0.31654 -0.77333,-0.47599 v 1.42801 h 0.25778 v 0.714 h 0.25777 c 0.0859,0.31653 0.17194,0.63546 0.25778,0.952 h 0.25777 v 0.71401 h 0.25776 q 0.1289,0.714 0.25778,1.42799 c 0.17195,0.0785 0.34361,0.15946 0.51555,0.238 l 0.25779,2.38001 h -0.25779 c -0.25778,-0.29274 -0.6153,-0.29037 -0.77333,-0.476 v -0.476 h -0.25776 l -0.51555,-0.714 h -0.51555 c -0.0859,-0.15947 -0.17193,-0.31655 -0.25777,-0.476 h -0.51555 c -0.25778,-0.31655 -0.51555,-0.63546 -0.77333,-0.95201 -0.25776,-0.0785 -0.51554,-0.15946 -0.77331,-0.23799 q -0.77333,-0.83182 -1.54665,-1.66602 l -1.0311,-0.71399 c -0.0858,-0.15946 -0.17194,-0.31655 -0.25777,-0.47601 -0.25779,-0.0785 -0.51556,-0.15945 -0.77334,-0.23799 v -0.47601 h -0.51554 v -0.238 c -0.51555,-0.39745 -1.0311,-0.79254 -1.54665,-1.19 v -0.476 h -0.25777 c -0.25778,-0.31654 -0.51555,-0.63546 -0.77333,-0.952 0.25778,-0.0785 0.51555,-0.15946 0.77333,-0.238 0.67923,-0.60453 1.13188,-0.14994 2.0622,-0.47601 v -0.238 c 0.34361,-0.0785 0.68748,-0.15947 1.0311,-0.23801 v -0.23799 q 6.44434,-0.47481 12.88872,-0.952 c 0.21756,0.26893 -0.0327,0.0357 0.25777,0.238 0.0317,0.86156 0.32093,1.33993 0.51555,1.90401 q 0.38665,2.61681 0.77332,5.23601 z m 62.3814,4.522 c -0.21163,-2.34668 -0.73337,-5.0337 -0.77332,-7.61601 h -0.51554 q -0.90223,1.31019 -1.80443,2.61801 c -0.55808,1.15192 -0.0142,1.77787 -1.54665,2.142 -0.0838,-0.93058 -0.49518,-1.48512 -0.77331,-2.142 v -0.714 h -0.25778 q -0.25778,-1.90283 -0.51556,-3.80801 h -0.51555 c -0.0859,0.31654 -0.17192,0.63546 -0.25777,0.952 -0.17193,0.0785 -0.34362,0.15946 -0.51555,0.23799 v 1.19 h -0.25778 c -0.47945,1.15431 -0.42351,2.29196 -1.80441,2.61802 -0.10907,-1.19953 -0.68928,-2.72987 -1.0311,-3.80802 v -2.618 h -0.25778 v -0.714 a 2.7277687,2.518523 0 0 1 1.0311,-0.238 c 0.78338,0.62594 3.15929,0.1547 4.38218,0.476 v 0.23799 h 1.80441 v 0.23801 h 1.80443 v 0.23799 h 1.80441 v 0.23801 h 1.54665 c 0.62304,0.16898 2.35915,0.75922 3.35106,0.476 v -0.238 c 0.51555,-0.0785 1.0311,-0.15946 1.54665,-0.238 a 3.266775,3.0161824 0 0 1 0.25778,1.19 h -0.25778 v 0.952 h -0.25777 v 0.47601 h -0.25778 v 0.476 c -0.17193,0.0785 -0.34361,0.15946 -0.51555,0.23799 -0.0859,0.31655 -0.17192,0.63548 -0.25777,0.95202 -0.17193,0.0785 -0.34362,0.15946 -0.51555,0.23799 -0.0859,0.31655 -0.17193,0.63547 -0.25778,0.95201 -0.17193,0.0785 -0.34361,0.15946 -0.51555,0.23799 -0.0859,0.31655 -0.17193,0.63548 -0.25777,0.95202 -0.17194,0.0785 -0.34362,0.15945 -0.51555,0.23798 -0.0859,0.31655 -0.17194,0.63548 -0.25778,0.95202 l -1.03109,0.714 c -0.70604,0.9639 -0.0995,1.70884 -1.80442,1.90399 z"
     style="fill:#674c02;fill-rule:evenodd;stroke-width:0.24769" />
</svg>
